<?xml version="1.0" encoding="UTF-8"?>
<svg width="1200px" height="126px" viewBox="0 0 1200 126" version="1.1" xmlns="http://www.w3.org/2000/svg" xmlns:xlink="http://www.w3.org/1999/xlink">
    <!-- Generator: Sketch 49.3 (51167) - http://www.bohemiancoding.com/sketch -->
    <title>tiaowen</title>
    <desc>Created with Sketch.</desc>
    <defs>
        <rect id="path-1" x="0" y="0" width="1200" height="125"></rect>
    </defs>
    <g id="tiaowen" stroke="none" stroke-width="1" fill="none" fill-rule="evenodd">
        <g id="Group-14" transform="translate(0.000000, 1.000000)">
            <g id="Group-21-+-Group-21-Copy-4-+-Group-21-Copy-2-+-Group-21-Copy-5-+-Group-21-Copy-+-Group-21-Copy-6-+-Group-21-Copy-3-+-Group-21-Copy-7-Mask">
                <mask id="mask-2" fill="white">
                    <use xlink:href="#path-1"></use>
                </mask>
                <g id="Mask"></g>
                <g id="Group-21" opacity="0.119419643" mask="url(#mask-2)" stroke="#FF5341" stroke-linecap="square">
                    <g transform="translate(-133.218589, -6.250000)">
                        <path d="M159.963303,1.04166667 L92.8311629,146.875" id="Line-2-Copy-8"></path>
                        <path d="M240.73166,1.04166667 L173.599519,146.875" id="Line-2-Copy-16"></path>
                        <path d="M206.11665,1.04166667 L138.984509,146.875" id="Line-2-Copy-9"></path>
                        <path d="M286.885006,1.04166667 L219.752866,146.875" id="Line-2-Copy-17"></path>
                        <path d="M171.50164,1.04166667 L104.3695,146.875" id="Line-2-Copy-10"></path>
                        <path d="M252.269996,1.04166667 L185.137856,146.875" id="Line-2-Copy-18"></path>
                        <path d="M217.654987,1.04166667 L150.522846,146.875" id="Line-2-Copy-11"></path>
                        <path d="M298.423343,1.04166667 L231.291203,146.875" id="Line-2-Copy-19"></path>
                        <path d="M183.039977,1.04166667 L115.907836,146.875" id="Line-2-Copy-12"></path>
                        <path d="M263.808333,1.04166667 L196.676193,146.875" id="Line-2-Copy-20"></path>
                        <path d="M136.88663,1.04166667 L69.7544897,146.875" id="Line-2-Copy-6"></path>
                        <path d="M229.193323,1.04166667 L162.061183,146.875" id="Line-2-Copy-13"></path>
                        <path d="M309.96168,1.04166667 L242.829539,146.875" id="Line-2-Copy-21"></path>
                        <path d="M194.578313,1.04166667 L127.446173,146.875" id="Line-2-Copy-14"></path>
                        <path d="M275.34667,1.04166667 L208.214529,146.875" id="Line-2-Copy-22"></path>
                        <path d="M148.424967,1.04166667 L81.2928263,146.875" id="Line-2-Copy-7"></path>
                        <path d="M240.73166,1.04166667 L173.599519,146.875" id="Line-2-Copy-15"></path>
                        <path d="M321.500016,1.04166667 L254.367876,146.875" id="Line-2-Copy-23"></path>
                        <path d="M333.038353,1.04166667 L265.906212,146.875" id="Line-2-Copy-24"></path>
                    </g>
                </g>
                <g id="Group-21-Copy-4" opacity="0.119419643" mask="url(#mask-2)" stroke="#FF5341" stroke-linecap="square">
                    <g transform="translate(976.936317, -6.250000)">
                        <path d="M67.6566103,1.04166667 L0.524469847,146.875" id="Line-2"></path>
                        <path d="M159.963303,1.04166667 L92.8311629,146.875" id="Line-2-Copy-8"></path>
                        <path d="M240.73166,1.04166667 L173.599519,146.875" id="Line-2-Copy-16"></path>
                        <path d="M113.809957,1.04166667 L46.6778164,146.875" id="Line-2-Copy-4"></path>
                        <path d="M206.11665,1.04166667 L138.984509,146.875" id="Line-2-Copy-9"></path>
                        <path d="M286.885006,1.04166667 L219.752866,146.875" id="Line-2-Copy-17"></path>
                        <path d="M79.1949469,1.04166667 L12.0628065,146.875" id="Line-2-Copy"></path>
                        <path d="M171.50164,1.04166667 L104.3695,146.875" id="Line-2-Copy-10"></path>
                        <path d="M252.269996,1.04166667 L185.137856,146.875" id="Line-2-Copy-18"></path>
                        <path d="M125.348293,1.04166667 L58.216153,146.875" id="Line-2-Copy-5"></path>
                        <path d="M217.654987,1.04166667 L150.522846,146.875" id="Line-2-Copy-11"></path>
                        <path d="M90.7332835,1.04166667 L23.6011431,146.875" id="Line-2-Copy-2"></path>
                        <path d="M183.039977,1.04166667 L115.907836,146.875" id="Line-2-Copy-12"></path>
                        <path d="M263.808333,1.04166667 L196.676193,146.875" id="Line-2-Copy-20"></path>
                        <path d="M136.88663,1.04166667 L69.7544897,146.875" id="Line-2-Copy-6"></path>
                        <path d="M229.193323,1.04166667 L162.061183,146.875" id="Line-2-Copy-13"></path>
                        <path d="M102.27162,1.04166667 L35.1394798,146.875" id="Line-2-Copy-3"></path>
                        <path d="M194.578313,1.04166667 L127.446173,146.875" id="Line-2-Copy-14"></path>
                        <path d="M275.34667,1.04166667 L208.214529,146.875" id="Line-2-Copy-22"></path>
                        <path d="M148.424967,1.04166667 L81.2928263,146.875" id="Line-2-Copy-7"></path>
                        <path d="M240.73166,1.04166667 L173.599519,146.875" id="Line-2-Copy-15"></path>
                    </g>
                </g>
                <g id="Group-21-Copy-2" opacity="0.119419643" mask="url(#mask-2)" stroke="#FF5341" stroke-linecap="square">
                    <g transform="translate(422.375215, -6.250000)">
                        <path d="M67.6566103,1.04166667 L0.524469847,146.875" id="Line-2"></path>
                        <path d="M159.963303,1.04166667 L92.8311629,146.875" id="Line-2-Copy-8"></path>
                        <path d="M240.73166,1.04166667 L173.599519,146.875" id="Line-2-Copy-16"></path>
                        <path d="M113.809957,1.04166667 L46.6778164,146.875" id="Line-2-Copy-4"></path>
                        <path d="M206.11665,1.04166667 L138.984509,146.875" id="Line-2-Copy-9"></path>
                        <path d="M286.885006,1.04166667 L219.752866,146.875" id="Line-2-Copy-17"></path>
                        <path d="M79.1949469,1.04166667 L12.0628065,146.875" id="Line-2-Copy"></path>
                        <path d="M171.50164,1.04166667 L104.3695,146.875" id="Line-2-Copy-10"></path>
                        <path d="M252.269996,1.04166667 L185.137856,146.875" id="Line-2-Copy-18"></path>
                        <path d="M125.348293,1.04166667 L58.216153,146.875" id="Line-2-Copy-5"></path>
                        <path d="M217.654987,1.04166667 L150.522846,146.875" id="Line-2-Copy-11"></path>
                        <path d="M298.423343,1.04166667 L231.291203,146.875" id="Line-2-Copy-19"></path>
                        <path d="M90.7332835,1.04166667 L23.6011431,146.875" id="Line-2-Copy-2"></path>
                        <path d="M183.039977,1.04166667 L115.907836,146.875" id="Line-2-Copy-12"></path>
                        <path d="M263.808333,1.04166667 L196.676193,146.875" id="Line-2-Copy-20"></path>
                        <path d="M136.88663,1.04166667 L69.7544897,146.875" id="Line-2-Copy-6"></path>
                        <path d="M229.193323,1.04166667 L162.061183,146.875" id="Line-2-Copy-13"></path>
                        <path d="M309.96168,1.04166667 L242.829539,146.875" id="Line-2-Copy-21"></path>
                        <path d="M102.27162,1.04166667 L35.1394798,146.875" id="Line-2-Copy-3"></path>
                        <path d="M194.578313,1.04166667 L127.446173,146.875" id="Line-2-Copy-14"></path>
                        <path d="M275.34667,1.04166667 L208.214529,146.875" id="Line-2-Copy-22"></path>
                        <path d="M148.424967,1.04166667 L81.2928263,146.875" id="Line-2-Copy-7"></path>
                        <path d="M240.73166,1.04166667 L173.599519,146.875" id="Line-2-Copy-15"></path>
                        <path d="M321.500016,1.04166667 L254.367876,146.875" id="Line-2-Copy-23"></path>
                        <path d="M333.038353,1.04166667 L265.906212,146.875" id="Line-2-Copy-24"></path>
                    </g>
                </g>
                <g id="Group-21-Copy-6" opacity="0.119419643" mask="url(#mask-2)" stroke="#FF5341" stroke-linecap="square">
                    <g transform="translate(699.139415, -6.250000)">
                        <path d="M67.6566103,1.04166667 L0.524469847,146.875" id="Line-2"></path>
                        <path d="M159.963303,1.04166667 L92.8311629,146.875" id="Line-2-Copy-8"></path>
                        <path d="M240.73166,1.04166667 L173.599519,146.875" id="Line-2-Copy-16"></path>
                        <path d="M113.809957,1.04166667 L46.6778164,146.875" id="Line-2-Copy-4"></path>
                        <path d="M206.11665,1.04166667 L138.984509,146.875" id="Line-2-Copy-9"></path>
                        <path d="M286.885006,1.04166667 L219.752866,146.875" id="Line-2-Copy-17"></path>
                        <path d="M79.1949469,1.04166667 L12.0628065,146.875" id="Line-2-Copy"></path>
                        <path d="M171.50164,1.04166667 L104.3695,146.875" id="Line-2-Copy-10"></path>
                        <path d="M252.269996,1.04166667 L185.137856,146.875" id="Line-2-Copy-18"></path>
                        <path d="M125.348293,1.04166667 L58.216153,146.875" id="Line-2-Copy-5"></path>
                        <path d="M217.654987,1.04166667 L150.522846,146.875" id="Line-2-Copy-11"></path>
                        <path d="M298.423343,1.04166667 L231.291203,146.875" id="Line-2-Copy-19"></path>
                        <path d="M90.7332835,1.04166667 L23.6011431,146.875" id="Line-2-Copy-2"></path>
                        <path d="M183.039977,1.04166667 L115.907836,146.875" id="Line-2-Copy-12"></path>
                        <path d="M263.808333,1.04166667 L196.676193,146.875" id="Line-2-Copy-20"></path>
                        <path d="M136.88663,1.04166667 L69.7544897,146.875" id="Line-2-Copy-6"></path>
                        <path d="M229.193323,1.04166667 L162.061183,146.875" id="Line-2-Copy-13"></path>
                        <path d="M309.96168,1.04166667 L242.829539,146.875" id="Line-2-Copy-21"></path>
                        <path d="M102.27162,1.04166667 L35.1394798,146.875" id="Line-2-Copy-3"></path>
                        <path d="M194.578313,1.04166667 L127.446173,146.875" id="Line-2-Copy-14"></path>
                        <path d="M275.34667,1.04166667 L208.214529,146.875" id="Line-2-Copy-22"></path>
                        <path d="M148.424967,1.04166667 L81.2928263,146.875" id="Line-2-Copy-7"></path>
                        <path d="M240.73166,1.04166667 L173.599519,146.875" id="Line-2-Copy-15"></path>
                        <path d="M321.500016,1.04166667 L254.367876,146.875" id="Line-2-Copy-23"></path>
                        <path d="M333.038353,1.04166667 L265.906212,146.875" id="Line-2-Copy-24"></path>
                    </g>
                </g>
                <g id="Group-21-Copy-3" opacity="0.119419643" mask="url(#mask-2)" stroke="#FF5341" stroke-linecap="square">
                    <g transform="translate(144.578313, -6.250000)">
                        <path d="M67.6566103,1.04166667 L0.524469847,146.875" id="Line-2"></path>
                        <path d="M159.963303,1.04166667 L92.8311629,146.875" id="Line-2-Copy-8"></path>
                        <path d="M240.73166,1.04166667 L173.599519,146.875" id="Line-2-Copy-16"></path>
                        <path d="M113.809957,1.04166667 L46.6778164,146.875" id="Line-2-Copy-4"></path>
                        <path d="M206.11665,1.04166667 L138.984509,146.875" id="Line-2-Copy-9"></path>
                        <path d="M286.885006,1.04166667 L219.752866,146.875" id="Line-2-Copy-17"></path>
                        <path d="M79.1949469,1.04166667 L12.0628065,146.875" id="Line-2-Copy"></path>
                        <path d="M171.50164,1.04166667 L104.3695,146.875" id="Line-2-Copy-10"></path>
                        <path d="M252.269996,1.04166667 L185.137856,146.875" id="Line-2-Copy-18"></path>
                        <path d="M125.348293,1.04166667 L58.216153,146.875" id="Line-2-Copy-5"></path>
                        <path d="M217.654987,1.04166667 L150.522846,146.875" id="Line-2-Copy-11"></path>
                        <path d="M298.423343,1.04166667 L231.291203,146.875" id="Line-2-Copy-19"></path>
                        <path d="M90.7332835,1.04166667 L23.6011431,146.875" id="Line-2-Copy-2"></path>
                        <path d="M183.039977,1.04166667 L115.907836,146.875" id="Line-2-Copy-12"></path>
                        <path d="M263.808333,1.04166667 L196.676193,146.875" id="Line-2-Copy-20"></path>
                        <path d="M136.88663,1.04166667 L69.7544897,146.875" id="Line-2-Copy-6"></path>
                        <path d="M229.193323,1.04166667 L162.061183,146.875" id="Line-2-Copy-13"></path>
                        <path d="M309.96168,1.04166667 L242.829539,146.875" id="Line-2-Copy-21"></path>
                        <path d="M102.27162,1.04166667 L35.1394798,146.875" id="Line-2-Copy-3"></path>
                        <path d="M194.578313,1.04166667 L127.446173,146.875" id="Line-2-Copy-14"></path>
                        <path d="M275.34667,1.04166667 L208.214529,146.875" id="Line-2-Copy-22"></path>
                        <path d="M148.424967,1.04166667 L81.2928263,146.875" id="Line-2-Copy-7"></path>
                        <path d="M240.73166,1.04166667 L173.599519,146.875" id="Line-2-Copy-15"></path>
                        <path d="M321.500016,1.04166667 L254.367876,146.875" id="Line-2-Copy-23"></path>
                        <path d="M333.038353,1.04166667 L265.906212,146.875" id="Line-2-Copy-24"></path>
                    </g>
                </g>
                <g id="Group-21-Copy-7" opacity="0.119419643" mask="url(#mask-2)" stroke="#266FE2" stroke-linecap="square">
                    <g transform="translate(-47.421687, -6.250000)">
                        <path d="M67.6566103,1.04166667 L0.524469847,146.875" id="Line-2"></path>
                        <path d="M472.450524,1.04166667 L405.318384,146.875" id="Line-2-Copy-8"></path>
                        <path d="M826.645199,1.04166667 L759.513059,146.875" id="Line-2-Copy-16"></path>
                        <path d="M270.053567,1.04166667 L202.921427,146.875" id="Line-2-Copy-4"></path>
                        <path d="M674.847482,1.04166667 L607.715341,146.875" id="Line-2-Copy-9"></path>
                        <path d="M1079.6414,1.04166667 L1012.50926,146.875" id="Line-2-Copy-17"></path>
                        <path d="M118.25585,1.04166667 L51.1237091,146.875" id="Line-2-Copy"></path>
                        <path d="M523.049764,1.04166667 L455.917623,146.875" id="Line-2-Copy-10"></path>
                        <path d="M927.843678,1.04166667 L860.711538,146.875" id="Line-2-Copy-18"></path>
                        <path d="M320.652807,1.04166667 L253.520666,146.875" id="Line-2-Copy-5"></path>
                        <path d="M725.446721,1.04166667 L658.31458,146.875" id="Line-2-Copy-11"></path>
                        <path d="M1130.24064,1.04166667 L1063.10849,146.875" id="Line-2-Copy-19"></path>
                        <path d="M168.855089,1.04166667 L101.722948,146.875" id="Line-2-Copy-2"></path>
                        <path d="M573.649003,1.04166667 L506.516863,146.875" id="Line-2-Copy-12"></path>
                        <path d="M978.442917,1.04166667 L911.310777,146.875" id="Line-2-Copy-20"></path>
                        <path d="M371.252046,1.04166667 L304.119905,146.875" id="Line-2-Copy-6"></path>
                        <path d="M776.04596,1.04166667 L708.91382,146.875" id="Line-2-Copy-13"></path>
                        <path d="M1180.83987,1.04166667 L1113.70773,146.875" id="Line-2-Copy-21"></path>
                        <path d="M219.454328,1.04166667 L152.322188,146.875" id="Line-2-Copy-3"></path>
                        <path d="M624.248242,1.04166667 L557.116102,146.875" id="Line-2-Copy-14"></path>
                        <path d="M1029.04216,1.04166667 L961.910016,146.875" id="Line-2-Copy-22"></path>
                        <path d="M421.851285,1.04166667 L354.719145,146.875" id="Line-2-Copy-7"></path>
                        <path d="M877.244439,1.04166667 L810.112298,146.875" id="Line-2-Copy-15"></path>
                        <path d="M1231.43911,1.04166667 L1164.30697,146.875" id="Line-2-Copy-23"></path>
                        <path d="M1282.03835,1.04166667 L1214.90621,146.875" id="Line-2-Copy-24"></path>
                    </g>
                </g>
            </g>
        </g>
    </g>
</svg>