<?xml version="1.0" encoding="UTF-8"?>
<svg width="36px" height="36px" viewBox="0 0 36 36" version="1.1" xmlns="http://www.w3.org/2000/svg" xmlns:xlink="http://www.w3.org/1999/xlink">
    <!-- Generator: Sketch 49.3 (51167) - http://www.bohemiancoding.com/sketch -->
    <title>儿童和加床</title>
    <desc>Created with Sketch.</desc>
    <defs></defs>
    <g id="儿童和加床" stroke="none" stroke-width="1" fill="none" fill-rule="evenodd">
        <g id="Group-2" transform="translate(1.000000, 1.000000)">
            <g id="Group-64-Copy" fill="#7CAD4B">
                <g id="Group-27-Copy">
                    <circle id="Oval-6" cx="17" cy="17" r="17"></circle>
                </g>
            </g>
            <g id="Group" transform="translate(8.000000, 11.000000)">
                <path d="M-0.000109090909,4.52105455 C3.1488,4.79650909 4.90898182,7.24832727 4.90898182,7.24832727 C5.14625455,1.49596364 -0.000109090909,4.52105455 -0.000109090909,4.52105455" id="Fill-1" fill="#FFFFFF"></path>
                <path d="M0.545345455,7.24832727 L17.4544364,7.24832727" id="Stroke-3" stroke="#FFFFFF" stroke-linecap="round" stroke-linejoin="round"></path>
                <path d="M0.545345455,9.97576364 L17.4544364,9.97576364" id="Stroke-5" stroke="#FFFFFF" stroke-linecap="round" stroke-linejoin="round"></path>
                <path d="M17.4544364,9.97576364 L17.4544364,12.5666727" id="Stroke-7" stroke="#FFFFFF" stroke-linecap="round" stroke-linejoin="round"></path>
                <path d="M-0.000109090909,1.18003636 L-0.000109090909,12.5664" id="Stroke-9" stroke="#FFFFFF" stroke-linecap="round" stroke-linejoin="round"></path>
                <path d="M10.8200182,2.66285455 C10.8200182,1.19230909 12.0123818,-5.45454545e-05 13.4829273,-5.45454545e-05 C14.9534727,-5.45454545e-05 16.1458364,1.19230909 16.1458364,2.66285455 C16.1458364,4.1334 14.9534727,5.32576364 13.4829273,5.32576364 C12.0123818,5.32576364 10.8200182,4.1334 10.8200182,2.66285455 Z" id="Stroke-11" stroke="#FFFFFF"></path>
                <path d="M10.8200182,2.66285455 L16.1458364,2.66285455" id="Stroke-13" stroke="#FFFFFF"></path>
                <path d="M13.4828727,5.32565455 L13.4828727,-0.000163636364" id="Stroke-15" stroke="#FFFFFF"></path>
            </g>
        </g>
    </g>
</svg>