<?xml version="1.0" encoding="UTF-8"?>
<svg width="50px" height="50px" viewBox="0 0 50 50" version="1.1" xmlns="http://www.w3.org/2000/svg" xmlns:xlink="http://www.w3.org/1999/xlink">
    <!-- Generator: Sketch 49.3 (51167) - http://www.bohemiancoding.com/sketch -->
    <title>机场</title>
    <desc>Created with Sketch.</desc>
    <defs></defs>
    <g id="机场" stroke="none" stroke-width="1" fill="none" fill-rule="evenodd">
        <g id="Group-69" transform="translate(1.000000, 5.000000)" stroke="#666666" stroke-width="2">
            <g id="Group-48-Copy-4" transform="translate(34.185185, 18.518519)">
                <g id="Group-56">
                    <path d="M7.25200725,0 C3.24638048,0 0,3.43323587 0,7.66910331 C0,9.54873294 0.666851242,11.2480507 1.70278054,12.6042885 C3.34680988,14.7568226 5.52361721,17.2178363 6.72977435,18.2758285 C6.93414819,18.4551657 7.10538032,18.5185185 7.25200725,18.5185185 C7.40666853,18.5185185 7.56936417,18.4551657 7.77424015,18.2753411 C8.97989515,17.2173489 11.1572046,14.7568226 12.8007318,12.6042885 C13.8371633,11.2480507 14.5040145,9.54873294 14.5040145,7.66910331 C14.5040145,3.43323587 11.2571319,0 7.25200725,0 Z" id="Stroke-1" stroke-linecap="round" stroke-linejoin="round"></path>
                    <ellipse id="Oval-5" cx="7.25200725" cy="6.10500611" rx="2.17560218" ry="2.13675214"></ellipse>
                </g>
            </g>
            <path d="M37.6544144,6.9487703 C41.197007,4.89321475 40.7377478,4.0913629 40.1766366,3.11358512 C39.1655255,1.35802956 34.6803404,1.66173327 31.0914515,3.74691845 C31.0914515,3.74691845 28.1451552,5.4450666 24.5618218,7.51728882 L16.9692292,2.40617771 C16.1451552,1.75432586 14.4340441,1.66173327 13.8840441,2.21173327 L12.5766366,3.11543697 C12.0340441,3.65988141 12.2007107,4.70802956 12.9266366,5.43765919 L18.4877478,11.0265481 C14.9025626,13.1043259 11.9284885,14.8358073 11.8581181,14.9061777 C11.8581181,14.9061777 7.9747848,12.3450666 6.87108109,11.8617333 C5.76922924,11.3839555 3.31737739,10.2506222 1.85071072,11.102474 L1.6247848,11.2339555 C0.639599612,11.8043259 0.593303315,12.8987703 1.50256257,13.6858073 L8.89700702,20.0691407 C10.2618218,21.2487703 12.5562663,21.5117333 14.0247848,20.6598814 L37.6544144,6.9487703 Z" id="Stroke-1" fill-opacity="0.3" fill="#266FE2" transform="translate(20.706543, 11.505788) rotate(-5.000000) translate(-20.706543, -11.505788) "></path>
            <path d="M33.1941551,40.8564815 C27.9761767,35.2623457 23.018615,32.4652778 18.3214699,32.4652778 C11.2757523,32.4652778 9.07667824,34.2574508 3.44878472,27.7777778" id="Path-12" stroke-linecap="round" stroke-dasharray="2,4"></path>
        </g>
    </g>
</svg>