<?xml version="1.0" encoding="UTF-8"?>
<svg width="30px" height="30px" viewBox="0 0 30 30" version="1.1" xmlns="http://www.w3.org/2000/svg" xmlns:xlink="http://www.w3.org/1999/xlink">
    <!-- Generator: Sketch 49.3 (51167) - http://www.bohemiancoding.com/sketch -->
    <title>婴儿加床</title>
    <desc>Created with Sketch.</desc>
    <defs></defs>
    <g id="婴儿加床" stroke="none" stroke-width="1" fill="none" fill-rule="evenodd">
        <g id="Group" transform="translate(6.000000, 8.000000)">
            <path d="M0.941958621,7.07431034 L17.0687172,7.07431034" id="Stroke-1" stroke="#7CAD4B" stroke-linecap="round" stroke-linejoin="round"></path>
            <path d="M0.941958621,12.2411172 L17.0687172,12.2411172" id="Stroke-3" stroke="#7CAD4B" stroke-linecap="round" stroke-linejoin="round"></path>
            <path d="M0.941958621,5.51532414 L0.941958621,13.9567034" id="Stroke-5" stroke="#7CAD4B" stroke-linecap="round" stroke-linejoin="round"></path>
            <path d="M1.8729931,5.43047586 C1.8729931,5.9444069 1.45651034,6.36151034 0.941958621,6.36151034 C0.428027586,6.36151034 0.0109241379,5.9444069 0.0109241379,5.43047586 C0.0109241379,4.91592414 0.428027586,4.49944138 0.941958621,4.49944138 C1.45651034,4.49944138 1.8729931,4.91592414 1.8729931,5.43047586" id="Fill-7" fill="#7CAD4B"></path>
            <path d="M17.0689655,5.77384138 L17.0689655,14.2152207" id="Stroke-9" stroke="#7CAD4B" stroke-linecap="round" stroke-linejoin="round"></path>
            <path d="M18,5.43047586 C18,5.9444069 17.5828966,6.36151034 17.0689655,6.36151034 C16.5550345,6.36151034 16.137931,5.9444069 16.137931,5.43047586 C16.137931,4.91592414 16.5550345,4.49944138 17.0689655,4.49944138 C17.5828966,4.49944138 18,4.91592414 18,5.43047586" id="Fill-11" fill="#7CAD4B"></path>
            <path d="M17.9957793,14.8317517 C17.9982621,14.8038207 18.0001241,14.7758897 18.0001241,14.7473379 C18.0001241,14.2327862 17.5830207,13.8163034 17.0690897,13.8163034 C16.5551586,13.8163034 16.1380552,14.2327862 16.1380552,14.7473379 C16.1380552,14.7758897 16.1399172,14.8038207 16.1424,14.8317517 L17.9957793,14.8317517 Z" id="Fill-13" fill="#7CAD4B"></path>
            <path d="M1.85784828,14.944469 C1.86033103,14.9165379 1.8621931,14.8886069 1.8621931,14.8600552 C1.8621931,14.3455034 1.44508966,13.9290207 0.931158621,13.9290207 C0.417227586,13.9290207 0.000124137931,14.3455034 0.000124137931,14.8600552 C0.000124137931,14.8886069 0.0019862069,14.9165379 0.00446896552,14.944469 L1.85784828,14.944469 Z" id="Fill-16" fill="#7CAD4B"></path>
            <path d="M4.54301379,7.23103448 L4.54301379,12.0848276" id="Stroke-18" stroke="#7CAD4B" stroke-linecap="round" stroke-linejoin="round"></path>
            <path d="M9.08366897,7.23103448 L9.08366897,12.0848276" id="Stroke-20" stroke="#7CAD4B" stroke-linecap="round" stroke-linejoin="round"></path>
            <path d="M13.6242621,7.23103448 L13.6242621,12.0848276" id="Stroke-22" stroke="#7CAD4B" stroke-linecap="round" stroke-linejoin="round"></path>
            <path d="M6.20813793,2.1951931 L6.65689655,1.7576069 C6.68855172,1.72657241 6.70034483,1.6794 6.68668966,1.63657241 C6.67241379,1.59312414 6.63517241,1.56208966 6.59048276,1.55588276 L5.76434483,1.43546897 L5.39441379,0.686917241 C5.37455172,0.645951724 5.33358621,0.620503448 5.28889655,0.620503448 C5.24358621,0.620503448 5.20262069,0.645951724 5.18275862,0.686917241 L4.81282759,1.43546897 L3.98668966,1.55588276 C3.942,1.56208966 3.90475862,1.59312414 3.89110345,1.63657241 C3.87682759,1.6794 3.88862069,1.72657241 3.92027586,1.7576069 L4.36903448,2.1951931 L4.51862069,2.34043448 L4.44786207,2.75195172 L4.37772414,3.16408966 C4.37648276,3.16905517 4.37710345,3.17464138 4.37710345,3.18022759 C4.37710345,3.18581379 4.37586207,3.1914 4.37648276,3.19698621 C4.37772414,3.20753793 4.38082759,3.21808966 4.38455172,3.22864138 C4.39262069,3.24850345 4.40627586,3.26650345 4.42489655,3.27953793 C4.44537931,3.29443448 4.46958621,3.30250345 4.49441379,3.30250345 C4.5062069,3.30250345 4.51737931,3.30002069 4.52917241,3.29629655 C4.53662069,3.29443448 4.54282759,3.29257241 4.54965517,3.28884828 L4.99282759,3.05546897 L5.28889655,2.90029655 L5.58434483,3.05546897 L6.02751724,3.28884828 C6.03434483,3.29257241 6.04055172,3.29443448 6.048,3.29629655 C6.0597931,3.30002069 6.07096552,3.30250345 6.08275862,3.30250345 C6.10758621,3.30250345 6.1317931,3.29443448 6.15227586,3.27953793 C6.17089655,3.26650345 6.18455172,3.24850345 6.19324138,3.22864138 C6.19634483,3.21808966 6.19944828,3.20753793 6.20068966,3.19698621 C6.20131034,3.1914 6.20006897,3.18581379 6.20006897,3.18022759 C6.20006897,3.17464138 6.20068966,3.16905517 6.19944828,3.16408966 L6.12931034,2.75195172 L6.05855172,2.34043448 L6.20813793,2.1951931 Z" id="Fill-24" stroke="#7CAD4B" stroke-width="0.5" fill="#7CAD4B"></path>
            <path d="M10.8584069,4.03181379 L11.150131,3.74753793 C11.1706138,3.72767586 11.1786828,3.69664138 11.1693724,3.66933103 C11.1600621,3.6414 11.1358552,3.62091724 11.1066828,3.61657241 L10.5704069,3.53836552 L10.3295793,3.05174483 C10.3171655,3.02567586 10.2904759,3.00891724 10.2613034,3.00891724 C10.2315103,3.00891724 10.2048207,3.02567586 10.1924069,3.05174483 L9.95157931,3.53836552 L9.41530345,3.61657241 C9.38613103,3.62091724 9.36192414,3.6414 9.35261379,3.66933103 C9.34392414,3.69664138 9.35137241,3.72767586 9.37185517,3.74753793 L9.66357931,4.03181379 L9.7604069,4.12677931 L9.71509655,4.39367586 L9.66916552,4.6611931 C9.66854483,4.66491724 9.66916552,4.66864138 9.66854483,4.67174483 C9.66854483,4.67546897 9.66792414,4.6791931 9.66854483,4.68291724 C9.66916552,4.68974483 9.67102759,4.69657241 9.67351034,4.7034 C9.67909655,4.71643448 9.68778621,4.72822759 9.69957931,4.73691724 C9.71323448,4.74622759 9.72937241,4.7511931 9.74488966,4.7511931 C9.75295862,4.7511931 9.75978621,4.74995172 9.76785517,4.74746897 C9.7722,4.74622759 9.77654483,4.74436552 9.78088966,4.74250345 L10.0695103,4.59105517 L10.2613034,4.48988276 L10.4530966,4.59105517 L10.7417172,4.74250345 C10.7454414,4.74436552 10.7497862,4.74622759 10.754131,4.74746897 C10.7622,4.74995172 10.7690276,4.7511931 10.7770966,4.7511931 C10.7932345,4.7511931 10.8087517,4.74622759 10.8224069,4.73691724 C10.8342,4.72822759 10.8435103,4.71643448 10.8484759,4.7034 C10.8509586,4.69657241 10.8528207,4.68974483 10.8534414,4.68291724 C10.8540621,4.6791931 10.8534414,4.67546897 10.8534414,4.67174483 C10.8528207,4.66864138 10.8534414,4.66491724 10.8528207,4.6611931 L10.8068897,4.39367586 L10.7615793,4.12677931 L10.8584069,4.03181379 Z" id="Fill-27" stroke="#7CAD4B" stroke-width="0.5" fill="#7CAD4B"></path>
            <path d="M14.298269,2.7261931 C13.7768897,2.7261931 13.3542,2.30350345 13.3542,1.78212414 C13.3542,1.70888276 13.3647517,1.63874483 13.380269,1.57046897 C12.9613034,1.66667586 12.6484759,2.04033103 12.6484759,2.48846897 C12.6484759,3.00984828 13.0705448,3.43253793 13.5919241,3.43253793 C14.0406828,3.43253793 14.4143379,3.11908966 14.5105448,2.70012414 C14.4416483,2.71626207 14.3715103,2.7261931 14.298269,2.7261931" id="Fill-29" stroke="#7CAD4B" stroke-width="0.5" fill="#7CAD4B"></path>
        </g>
    </g>
</svg>