<?xml version="1.0" encoding="UTF-8"?>
<svg width="20px" height="20px" viewBox="0 0 20 20" version="1.1" xmlns="http://www.w3.org/2000/svg" xmlns:xlink="http://www.w3.org/1999/xlink">
    <!-- Generator: Sketch 49.3 (51167) - http://www.bohemiancoding.com/sketch -->
    <title>收藏</title>
    <desc>Created with Sketch.</desc>
    <defs></defs>
    <g id="收藏" stroke="none" stroke-width="1" fill="none" fill-rule="evenodd">
        <path d="M10,5.51585145 C9.18343917,3.99728261 7.57043434,3 5.78049276,3 C3.14472949,3 1,5.1240942 1,7.73550725 C1,8.44565217 1.16002032,9.125 1.46451613,9.75951087 C1.47091694,9.79755435 1.47457455,9.83605072 1.49149098,9.87318841 C3.02768606,13.1888587 5.79100838,16.0625 9.09154178,17.7907609 C9.13177546,17.817029 9.17703835,17.8414855 9.22687325,17.8632246 C9.24607569,17.8731884 9.26436373,17.884058 9.28310897,17.8935688 C9.33797308,17.9211957 9.39603759,17.9343297 9.45364491,17.9388587 C9.6022352,17.9764493 9.76911354,18 9.9487935,18 C10.1284735,18 10.2953518,17.9764493 10.4439421,17.9388587 C10.5015494,17.9343297 10.5596139,17.9211957 10.6140208,17.8935688 C10.6332233,17.8836051 10.6515113,17.8731884 10.6707137,17.8632246 C10.719177,17.8419384 10.7630683,17.8183877 10.8028448,17.7930254 C14.1888748,16.0235507 16.9910592,13.1490036 18.508509,9.87318841 C18.5254255,9.83605072 18.5290831,9.79755435 18.5354839,9.75951087 C18.8399797,9.125 19,8.44565217 19,7.73550725 C19,5.1240942 16.8552705,3 14.2195072,3 C12.4295657,3 10.8165608,3.99728261 10,5.51585145 Z" id="Fill-1" stroke="#266FE2"></path>
    </g>
</svg>