<?xml version="1.0" encoding="UTF-8"?>
<svg width="30px" height="30px" viewBox="0 0 30 30" version="1.1" xmlns="http://www.w3.org/2000/svg" xmlns:xlink="http://www.w3.org/1999/xlink">
    <!-- Generator: Sketch 49.3 (51167) - http://www.bohemiancoding.com/sketch -->
    <title>日期</title>
    <desc>Created with Sketch.</desc>
    <defs>
        <polygon id="path-1" points="0 16 15.7333333 16 15.7333333 0 0 0"></polygon>
        <polygon id="path-3" points="0 16 15.7333333 16 15.7333333 0 0 0"></polygon>
        <polygon id="path-5" points="0 16 15.7333333 16 15.7333333 0 0 0"></polygon>
        <polygon id="path-7" points="0 16 15.7333333 16 15.7333333 0 0 0"></polygon>
        <polygon id="path-9" points="0 16 15.7333333 16 15.7333333 0 0 0"></polygon>
        <polygon id="path-11" points="0 16 15.7333333 16 15.7333333 0 0 0"></polygon>
        <polygon id="path-13" points="0 16 15.7333333 16 15.7333333 0 0 0"></polygon>
        <polygon id="path-15" points="0 16 15.7333333 16 15.7333333 0 0 0"></polygon>
        <polygon id="path-17" points="0 16 15.7333333 16 15.7333333 0 0 0"></polygon>
        <polygon id="path-19" points="0 16 15.7333333 16 15.7333333 0 0 0"></polygon>
        <polygon id="path-21" points="0 16 15.7333333 16 15.7333333 0 0 0"></polygon>
    </defs>
    <g id="日期" stroke="none" stroke-width="1" fill="none" fill-rule="evenodd">
        <g id="图标日期" transform="translate(7.000000, 7.000000)">
            <path d="M14.6666667,14.6314286 C14.6666667,14.7537143 14.5701333,14.8571429 14.4554667,14.8571429 L1.27786667,14.8571429 C1.1632,14.8571429 1.06666667,14.7537143 1.06666667,14.6314286 L1.06666667,7.42857143 L14.6666667,7.42857143 L14.6666667,14.6314286 Z M14.4554667,2.28571429 L12.1333333,2.28571429 L12.1333333,3.42857143 L14.4554667,3.42857143 C14.5701333,3.42857143 14.6666667,3.532 14.6666667,3.65428571 L14.6666667,6.28571429 L1.06666667,6.28571429 L1.06666667,3.65485714 C1.06666667,3.532 1.1632,3.42857143 1.27786667,3.42857143 L3.6,3.42857143 L3.6,2.28571429 L1.27786667,2.28571429 C0.5728,2.28571429 0,2.9 0,3.65485714 L0,14.6314286 C0,15.3857143 0.5728,16 1.27786667,16 L14.4554667,16 C15.1605333,16 15.7333333,15.3862857 15.7333333,14.6314286 L15.7333333,3.65428571 C15.7333333,2.89942857 15.1605333,2.28571429 14.4554667,2.28571429 Z" id="----" fill="#666666" fill-rule="nonzero"></path>
            <g id="Fill-3-Clipped">
                <mask id="mask-2" fill="white">
                    <use xlink:href="#path-1"></use>
                </mask>
                <g id="path-1"></g>
                <polygon id="Fill-3" fill="#666666" fill-rule="nonzero" mask="url(#mask-2)" points="5.73333333 3.42857143 10 3.42857143 10 2.28571429 5.73333333 2.28571429"></polygon>
            </g>
            <g id="Fill-5-Clipped">
                <mask id="mask-4" fill="white">
                    <use xlink:href="#path-3"></use>
                </mask>
                <g id="path-1"></g>
                <polygon id="Fill-5" fill="#666666" fill-rule="nonzero" mask="url(#mask-4)" points="4.13333333 4.57142857 5.2 4.57142857 5.2 0 4.13333333 0"></polygon>
            </g>
            <g id="Fill-6-Clipped">
                <mask id="mask-6" fill="white">
                    <use xlink:href="#path-5"></use>
                </mask>
                <g id="path-1"></g>
                <polygon id="Fill-6" fill="#666666" fill-rule="nonzero" mask="url(#mask-6)" points="10.5333333 4.57142857 11.6 4.57142857 11.6 0 10.5333333 0"></polygon>
            </g>
            <g id="Fill-7-Clipped">
                <mask id="mask-8" fill="white">
                    <use xlink:href="#path-7"></use>
                </mask>
                <g id="path-1"></g>
                <polygon id="Fill-7" fill="#666666" fill-rule="nonzero" mask="url(#mask-8)" points="2.53333333 10.2857143 3.6 10.2857143 3.6 9.14285714 2.53333333 9.14285714"></polygon>
            </g>
            <g id="Fill-8-Clipped">
                <mask id="mask-10" fill="white">
                    <use xlink:href="#path-9"></use>
                </mask>
                <g id="path-1"></g>
                <polygon id="Fill-8" fill="#666666" fill-rule="nonzero" mask="url(#mask-10)" points="5.73333333 10.2857143 6.8 10.2857143 6.8 9.14285714 5.73333333 9.14285714"></polygon>
            </g>
            <g id="Fill-9-Clipped">
                <mask id="mask-12" fill="white">
                    <use xlink:href="#path-11"></use>
                </mask>
                <g id="path-1"></g>
                <polygon id="Fill-9" fill="#666666" fill-rule="nonzero" mask="url(#mask-12)" points="8.93333333 10.2857143 10 10.2857143 10 9.14285714 8.93333333 9.14285714"></polygon>
            </g>
            <g id="Fill-10-Clipped">
                <mask id="mask-14" fill="white">
                    <use xlink:href="#path-13"></use>
                </mask>
                <g id="path-1"></g>
                <polygon id="Fill-10" fill="#666666" fill-rule="nonzero" mask="url(#mask-14)" points="12.1333333 10.2857143 13.2 10.2857143 13.2 9.14285714 12.1333333 9.14285714"></polygon>
            </g>
            <g id="Fill-11-Clipped">
                <mask id="mask-16" fill="white">
                    <use xlink:href="#path-15"></use>
                </mask>
                <g id="path-1"></g>
                <polygon id="Fill-11" fill="#666666" fill-rule="nonzero" mask="url(#mask-16)" points="2.53333333 13.1428571 3.6 13.1428571 3.6 12 2.53333333 12"></polygon>
            </g>
            <g id="Fill-12-Clipped">
                <mask id="mask-18" fill="white">
                    <use xlink:href="#path-17"></use>
                </mask>
                <g id="path-1"></g>
                <polygon id="Fill-12" fill="#666666" fill-rule="nonzero" mask="url(#mask-18)" points="5.73333333 13.1428571 6.8 13.1428571 6.8 12 5.73333333 12"></polygon>
            </g>
            <g id="Fill-13-Clipped">
                <mask id="mask-20" fill="white">
                    <use xlink:href="#path-19"></use>
                </mask>
                <g id="path-1"></g>
                <polygon id="Fill-13" fill="#666666" fill-rule="nonzero" mask="url(#mask-20)" points="8.93333333 13.1428571 10 13.1428571 10 12 8.93333333 12"></polygon>
            </g>
            <g id="Fill-14-Clipped">
                <mask id="mask-22" fill="white">
                    <use xlink:href="#path-21"></use>
                </mask>
                <g id="path-1"></g>
                <polygon id="Fill-14" fill="#666666" fill-rule="nonzero" mask="url(#mask-22)" points="12.1333333 13.1428571 13.2 13.1428571 13.2 12 12.1333333 12"></polygon>
            </g>
        </g>
    </g>
</svg>