<?xml version="1.0" encoding="UTF-8"?>
<svg width="30px" height="30px" viewBox="0 0 30 30" version="1.1" xmlns="http://www.w3.org/2000/svg" xmlns:xlink="http://www.w3.org/1999/xlink">
    <!-- Generator: Sketch 49.3 (51167) - http://www.bohemiancoding.com/sketch -->
    <title>？</title>
    <desc>Created with Sketch.</desc>
    <defs></defs>
    <g id="？" stroke="none" stroke-width="1" fill="none" fill-rule="evenodd">
        <path d="M15.058409,15.5518573 L15.058409,16.4841854 C15.058409,16.7688488 14.8075729,17 14.4994028,17 C14.1918299,17 13.941591,16.7688488 13.941591,16.4841854 L13.941591,15.1033468 C13.941591,14.8186833 14.1918299,14.5875322 14.4994028,14.5875322 C15.2626613,14.5875322 15.883182,14.0143435 15.883182,13.3093049 C15.883182,12.6048179 15.2626613,12.0316293 14.4994028,12.0316293 C13.7367415,12.0316293 13.1162207,12.6048179 13.1162207,13.3093049 C13.1162207,13.5939684 12.8653846,13.8251195 12.5578118,13.8251195 C12.2502389,13.8251195 12,13.5939684 12,13.3093049 C12,12.0360427 13.1209986,11 14.4994028,11 C15.8784042,11 17,12.0360427 17,13.3093049 C17,14.381758 16.1782131,15.3140861 15.058409,15.5518573 M14.4994652,18 C14.2240642,18 14,17.7754011 14,17.5 C14,17.2240642 14.2240642,17 14.4994652,17 C14.7754011,17 15,17.2240642 15,17.5 C15,17.7754011 14.7754011,18 14.4994652,18 M14.5,8 C10.9163333,8 8,10.9959054 8,14.6785927 C8,16.5229974 8.73233333,18.1954283 9.91370833,19.4053667 L9.638,21.5041145 C9.61795833,21.6588352 9.67970833,21.8129994 9.79995833,21.9087259 C9.87579167,21.9688332 9.96733333,22 10.0599583,22 C10.1152083,22 10.169375,21.988869 10.2219167,21.9671636 L12.4692917,21.0188034 C13.1095417,21.2358577 13.7909583,21.3571855 14.5,21.3571855 C18.08475,21.3571855 21,18.3612801 21,14.6785927 C21,10.9959054 18.08475,8 14.5,8" id="Fill-1" fill="#266FE2"></path>
    </g>
</svg>