<?xml version="1.0" encoding="UTF-8"?>
<svg width="50px" height="50px" viewBox="0 0 50 50" version="1.1" xmlns="http://www.w3.org/2000/svg" xmlns:xlink="http://www.w3.org/1999/xlink">
    <!-- Generator: Sketch 49.3 (51167) - http://www.bohemiancoding.com/sketch -->
    <title>设施</title>
    <desc>Created with Sketch.</desc>
    <defs></defs>
    <g id="设施" stroke="none" stroke-width="1" fill="none" fill-rule="evenodd">
        <g id="Group-66" transform="translate(0.000000, 5.000000)">
            <ellipse id="Oval-6" fill="#50E3C2" cx="25" cy="36.9803922" rx="25" ry="4.01960784"></ellipse>
            <path d="M37.9979839,36.6216422 L11.5614919,36.6216422 C10.0756048,36.6216422 8.87096774,35.4207843 8.87096774,33.9395588 L8.87096774,2.68208333 C8.87096774,1.19985294 10.0756048,0 11.5614919,0 L37.9979839,0 C39.483871,0 40.6885081,1.19985294 40.6885081,2.68208333 L40.6885081,33.9395588 C40.6885081,35.4207843 39.483871,36.6216422 37.9979839,36.6216422 Z" id="Stroke-5" stroke="#266FE2" stroke-width="2" fill="#FFFFFF" stroke-linecap="round" stroke-linejoin="round"></path>
            <path d="M20.9889113,17.0844387 C20.9889113,17.0844387 24.1239919,19.1073064 20.84375,21.7029681 C18.6854839,23.4102966 20.1885081,25.7878946 22.15625,26.3214975" id="Stroke-1" stroke="#266FE2" stroke-width="2" stroke-linecap="round" stroke-linejoin="round"></path>
            <path d="M28.8609879,17.0844387 C28.8609879,17.0844387 31.9960685,19.1073064 28.7158266,21.7029681 C26.5575605,23.4102966 28.0605847,25.7878946 30.0283266,26.3214975" id="Stroke-3" stroke="#266FE2" stroke-width="2" stroke-linecap="round" stroke-linejoin="round"></path>
            <path d="M35.5802419,9.15505882 L13.9794355,9.15505882 C13.4229839,9.15505882 12.971371,8.70486275 12.971371,8.15015686 C12.971371,7.59545098 13.4229839,7.1452549 13.9794355,7.1452549 L35.5802419,7.1452549 C36.1366935,7.1452549 36.5883065,7.59545098 36.5883065,8.15015686 C36.5883065,8.70486275 36.1366935,9.15505882 35.5802419,9.15505882" id="Fill-7" fill="#266FE2"></path>
            <path d="M14.283871,5.23172059 C13.7274194,5.23172059 13.2758065,4.78152451 13.2758065,4.22681863 C13.2758065,3.67110784 13.7274194,3.22191667 14.283871,3.22191667 C14.8403226,3.22191667 15.2919355,3.67110784 15.2919355,4.22681863 C15.2919355,4.78152451 14.8403226,5.23172059 14.283871,5.23172059" id="Fill-9" fill="#266FE2"></path>
            <path d="M21.28125,5.23172059 C20.7247984,5.23172059 20.2731855,4.78152451 20.2731855,4.22681863 C20.2731855,3.67110784 20.7247984,3.22191667 21.28125,3.22191667 C21.8377016,3.22191667 22.2893145,3.67110784 22.2893145,4.22681863 C22.2893145,4.78152451 21.8377016,5.23172059 21.28125,5.23172059" id="Fill-11" fill="#266FE2"></path>
            <path d="M28.278629,5.23172059 C27.7221774,5.23172059 27.2705645,4.78152451 27.2705645,4.22681863 C27.2705645,3.67110784 27.7221774,3.22191667 28.278629,3.22191667 C28.8350806,3.22191667 29.2866935,3.67110784 29.2866935,4.22681863 C29.2866935,4.78152451 28.8350806,5.23172059 28.278629,5.23172059" id="Fill-13" fill="#266FE2"></path>
            <path d="M35.2760081,5.23172059 C34.7195565,5.23172059 34.2679435,4.78152451 34.2679435,4.22681863 C34.2679435,3.67110784 34.7195565,3.22191667 35.2760081,3.22191667 C35.8324597,3.22191667 36.2840726,3.67110784 36.2840726,4.22681863 C36.2840726,4.78152451 35.8324597,5.23172059 35.2760081,5.23172059" id="Fill-15" fill="#266FE2"></path>
            <polygon id="Stroke-17" stroke="#266FE2" stroke-width="2" stroke-linecap="round" stroke-linejoin="round" points="14.283871 31.3899216 35.2758065 31.3899216 35.2758065 13.078598 14.283871 13.078598"></polygon>
        </g>
    </g>
</svg>