<?xml version="1.0" encoding="UTF-8"?>
<svg width="16px" height="16px" viewBox="0 0 16 16" version="1.1" xmlns="http://www.w3.org/2000/svg" xmlns:xlink="http://www.w3.org/1999/xlink">
    <!-- Generator: Sketch 49.3 (51167) - http://www.bohemiancoding.com/sketch -->
    <title>Page 1</title>
    <desc>Created with Sketch.</desc>
    <defs></defs>
    <g id="Page-1" stroke="none" stroke-width="1" fill="none" fill-rule="evenodd">
        <g fill="#333333" id="Fill-1">
            <path d="M3.04761905,8.381 C3.04761905,7.53925941 2.36542857,6.85714286 1.52380952,6.85714286 C0.682190476,6.85714286 -9.52380952e-05,7.53925941 0,8.38090476 C0,9.22255011 0.682190476,9.9047619 1.52380952,9.9047619 C2.36533333,9.90485715 3.04761905,9.22255011 3.04761905,8.381 Z M14.4761905,9.14285714 C14.055381,9.14285714 13.7141905,8.80171429 13.7142857,8.38095239 C13.7142857,7.96009525 14.055381,7.6189524 14.4761905,7.61904764 C14.8970476,7.61904764 15.2380952,7.96019049 15.2380952,8.38095239 C15.2380952,8.80171429 14.8969524,9.14285714 14.4761905,9.14285714 Z M8,13.7142857 C7.3687619,13.7142857 6.85714286,14.2259048 6.85714286,14.8571429 C6.85714286,15.4882857 7.3687619,15.9999048 8,16 C8.6312381,16 9.14285714,15.4882857 9.14285714,14.8571429 C9.14285714,14.2259048 8.6312381,13.7142857 8,13.7142857 Z M9.14285714,1.52390476 C9.14285714,2.36540476 8.46066667,3.04761905 7.61904762,3.04761905 C6.77745238,3.04761905 6.0952381,2.36540476 6.0952381,1.52380952 C6.0952381,0.682190476 6.77745238,0 7.61904762,0 C8.46066667,0 9.14285714,0.682190476 9.14285714,1.52380952 L9.14285714,1.52390476 Z M4.12515245,4.88698316 C4.72018728,4.29194484 4.72018728,3.32712659 4.12515245,2.73206445 C3.53002237,2.1369309 2.56530501,2.1369309 1.97017493,2.73206445 C1.37502105,3.32712659 1.37502105,4.29194484 1.97017493,4.88698316 C2.56530501,5.48211672 3.53002237,5.48211672 4.12515245,4.88698316 Z M11.7633845,14.141461 C11.3169671,13.6950408 11.3169671,12.9716258 11.7633845,12.5252056 C12.2096876,12.0788997 12.9332124,12.0788997 13.3795155,12.5252056 C13.8259329,12.9716258 13.8258186,13.6950408 13.3795155,14.141461 C12.9332124,14.587767 12.2096876,14.587767 11.7633845,14.141461 Z M4.88698042,11.8749104 C4.29195204,11.2797918 3.32712279,11.2797918 2.73198557,11.8749104 C2.13695719,12.470029 2.13695719,13.4347193 2.73198557,14.0298107 C3.32712279,14.6249837 4.29195204,14.6249837 4.88698042,14.0298107 C5.48211764,13.4347193 5.48211764,12.470029 4.88698042,11.8749104 Z M13.268,4.88698316 C12.6728571,5.48211672 11.7080952,5.48211672 11.1129524,4.88698316 C10.5179048,4.29194484 10.5179048,3.32712659 11.1129524,2.73206445 C11.7080952,2.1369309 12.6728571,2.1369309 13.268,2.73206445 C13.8630476,3.32712659 13.8630476,4.29194484 13.268,4.88698316 Z"></path>
        </g>
    </g>
</svg>