<?xml version="1.0" encoding="UTF-8"?>
<svg width="30px" height="31px" viewBox="0 0 30 31" version="1.1" xmlns="http://www.w3.org/2000/svg" xmlns:xlink="http://www.w3.org/1999/xlink">
    <!-- Generator: Sketch 49.3 (51167) - http://www.bohemiancoding.com/sketch -->
    <title>立即登录</title>
    <desc>Created with Sketch.</desc>
    <defs></defs>
    <g id="Page-1" stroke="none" stroke-width="1" fill="none" fill-rule="evenodd">
        <g id="A-2-1-搜索列表-未登录" transform="translate(-1457.000000, -24.000000)" stroke="#999999">
            <g id="导航">
                <g id="立即登录" transform="translate(1457.000000, 24.000000)">
                    <g id="Group-8">
                        <path d="M15,29.5 C23.0076076,29.5 29.5,23.0076076 29.5,15 C29.5,6.99178349 23.0079362,0.5 15,0.5 C6.99145487,0.5 0.5,6.99145487 0.5,15 C0.5,23.0079362 6.99178349,29.5 15,29.5 Z" id="Mask"></path>
                        <path d="M6.01289811,27.0107563 C6.21112319,24.422351 8.66822175,20.9624282 11.584543,19.5958415 C10.070708,18.5524021 9.0715187,16.7889203 9.0715187,14.8049907 C9.0715187,11.6012234 11.6727421,9 14.8911591,9 C18.1095761,9 20.7105989,11.6012234 20.7105989,14.8196404 C20.7105989,16.7889203 19.7260593,18.5231027 18.2270747,19.5810914 C21.1906988,20.9076789 23.7204778,24.1042689 23.9168586,27.0627838 C21.4242078,28.9084842 18.3394779,30 15,30 C11.6288817,30 8.51761332,28.8879545 6.01289811,27.0107563 Z" id="Combined-Shape"></path>
                    </g>
                </g>
            </g>
        </g>
    </g>
</svg>