<?xml version="1.0" encoding="UTF-8"?>
<svg width="30px" height="30px" viewBox="0 0 30 30" version="1.1" xmlns="http://www.w3.org/2000/svg" xmlns:xlink="http://www.w3.org/1999/xlink">
    <!-- Generator: Sketch 49.3 (51167) - http://www.bohemiancoding.com/sketch -->
    <title>入住人</title>
    <desc>Created with Sketch.</desc>
    <defs></defs>
    <g id="入住人" stroke="none" stroke-width="1" fill="none" fill-rule="evenodd">
        <g transform="translate(6.000000, 7.000000)" stroke="#666666">
            <path d="M13.1140742,13.5022848 C13.1140742,11.4369966 11.3466844,9.13333561 9.26139624,8.19991188 C10.2742098,7.48506442 10.9394301,6.31333561 10.9394301,4.98275934 C10.9394301,2.80818307 9.18200641,1.05062375 7.00743014,1.05062375 C4.83285386,1.05062375 3.07529454,2.80818307 3.07529454,4.97286103 C3.07529454,6.31333561 3.75041319,7.50486103 4.77326064,8.20987798 C2.71780302,9.17306442 0.999972508,11.6753017 0.999972508,13.4427593 C0.999972508,16.7294712 13.1140742,16.7294712 13.1140742,13.5022848" id="Fill-1"></path>
            <path d="M15.5655963,13.2729759 C16.3761908,12.9604395 16.9088132,12.506667 16.9088132,11.9117288 C16.9088132,10.3129492 15.5385081,8.51572883 13.9101013,7.78101697 C14.7044064,7.22494917 15.2108471,6.31138985 15.2108471,5.27877968 C15.2108471,3.59071188 13.8406098,2.220339 12.152542,2.220339" id="Fill-4"></path>
        </g>
    </g>
</svg>