<?xml version="1.0" encoding="UTF-8"?>
<svg width="30px" height="30px" viewBox="0 0 30 30" version="1.1" xmlns="http://www.w3.org/2000/svg" xmlns:xlink="http://www.w3.org/1999/xlink">
    <!-- Generator: Sketch 49.3 (51167) - http://www.bohemiancoding.com/sketch -->
    <title>平台政策</title>
    <desc>Created with Sketch.</desc>
    <defs></defs>
    <g id="平台政策" stroke="none" stroke-width="1" fill="none" fill-rule="evenodd">
        <g id="Group-57" transform="translate(3.000000, 3.000000)">
            <g id="Group-64-Copy-2" fill="#DDDDDD">
                <g id="Group-27-Copy">
                    <circle id="Oval-6" cx="12" cy="12" r="12"></circle>
                </g>
            </g>
            <g id="Page-1" transform="translate(5.000000, 7.000000)" fill="#FFFFFF">
                <path d="M9.79466914,9.98994021 L10,9.98994021 L10,8 L9.79466914,8 L9.79466914,9.98994021 Z M7.32457234,8.01157825 L7.11924148,8.01157825 L7.11924148,8.43351998 L6.82609733,8.43351998 L6.82609733,8.59276834 L7.11924148,8.59276834 L7.11924148,9.65417102 C7.11719931,9.78646674 7.14319056,9.87719465 7.19740088,9.92635475 C7.25179684,9.97551485 7.34740751,10 7.48423286,10 C7.5144941,10 7.54494099,9.99905096 7.57538788,9.99696308 C7.60583477,9.99506501 7.63628166,9.99392616 7.6665429,9.99392616 L7.6665429,9.8346778 C7.60806259,9.84056183 7.54939663,9.84359875 7.49073067,9.84359875 C7.41684127,9.83961279 7.37061398,9.82006264 7.35223445,9.78494828 C7.33385493,9.75002373 7.32457234,9.70143305 7.32457234,9.63917624 L7.32457234,8.59276834 L7.6665429,8.59276834 L7.6665429,8.43351998 L7.32457234,8.43351998 L7.32457234,8.01157825 Z M8.10542368,9.07392996 C8.11396367,9.00370124 8.13197189,8.93518079 8.15907705,8.86798899 C8.1861822,8.80079719 8.22256995,8.7415773 8.26824029,8.69051912 C8.31391062,8.63946095 8.36923485,8.59846256 8.43439862,8.56733416 C8.49956239,8.53620575 8.57438006,8.52064155 8.65922291,8.52064155 C8.7416523,8.52064155 8.81554171,8.53620575 8.88070548,8.56733416 C8.94586925,8.59846256 9.00119348,8.63946095 9.04686381,8.69051912 C9.09234849,8.7415773 9.12762233,8.80022777 9.15268532,8.86647053 C9.17756266,8.93252349 9.19111524,9.00180317 9.19334306,9.07392996 L8.10542368,9.07392996 Z M9.23734253,8.63338711 C9.17756266,8.55233938 9.09996022,8.48666603 9.00453521,8.43655689 C8.90892455,8.38644776 8.79382045,8.36139319 8.65922291,8.36139319 C8.52666755,8.36139319 8.41212041,8.3849293 8.31539584,8.43200152 C8.21885692,8.47907374 8.14014056,8.54133055 8.07924678,8.61839233 C8.01853866,8.69564392 7.97342528,8.78333492 7.9440923,8.88146531 C7.91475932,8.97978552 7.90009283,9.0800038 7.90009283,9.18212015 C7.90009283,9.29239822 7.91475932,9.39717187 7.9440923,9.49644111 C7.97342528,9.59552055 8.01853866,9.68283193 8.07924678,9.75799563 C8.14014056,9.83315934 8.21885692,9.89218943 8.31539584,9.9352757 C8.41212041,9.97836196 8.52666755,10 8.65922291,10 C8.87197984,10 9.03646731,9.95197874 9.15268532,9.85574642 C9.26890333,9.75951409 9.34854794,9.62323242 9.3921761,9.44671159 L9.18684525,9.44671159 C9.15435619,9.56704944 9.09569023,9.66328177 9.01103302,9.73540856 C8.92619016,9.80753535 8.80904389,9.84359875 8.65922291,9.84359875 C8.56138443,9.84359875 8.47784114,9.82461801 8.40822172,9.78646674 C8.33878796,9.74850527 8.28123591,9.7002942 8.23556557,9.64221315 C8.19008089,9.58413211 8.15684922,9.51845876 8.13624188,9.44519313 C8.11563453,9.3721173 8.10542368,9.30150897 8.10542368,9.23336813 L9.39867392,9.23336813 C9.40294391,9.12498814 9.3921761,9.01831641 9.3659992,8.91297333 C9.34000796,8.80782006 9.2971224,8.71462466 9.23734253,8.63338711 Z M6.34878663,9.42412451 C6.32372364,9.50346398 6.28677894,9.57407232 6.23795253,9.63613932 C6.18912611,9.69839613 6.12767537,9.74850527 6.05397162,9.78646674 C5.98008222,9.82461801 5.8943111,9.84359875 5.79647262,9.84359875 C5.69881979,9.84359875 5.61304867,9.82461801 5.53915926,9.78646674 C5.46526986,9.74850527 5.40400477,9.69839613 5.35517836,9.63613932 C5.30635194,9.57407232 5.26940724,9.50346398 5.24434425,9.42412451 C5.21946691,9.34497485 5.20684259,9.26430673 5.20684259,9.18212015 C5.20684259,9.09993357 5.21946691,9.01926545 5.24434425,8.94011578 C5.26940724,8.86096612 5.30635194,8.79035779 5.35517836,8.72810098 C5.40400477,8.66603398 5.46526986,8.61592484 5.53915926,8.57777356 C5.61304867,8.53981209 5.69881979,8.52064155 5.79647262,8.52064155 C5.8943111,8.52064155 5.98008222,8.53981209 6.05397162,8.57777356 C6.12767537,8.61592484 6.18912611,8.66603398 6.23795253,8.72810098 C6.28677894,8.79035779 6.32372364,8.86096612 6.34878663,8.94011578 C6.37366397,9.01926545 6.38610264,9.09993357 6.38610264,9.18212015 C6.38610264,9.26430673 6.37366397,9.34497485 6.34878663,9.42412451 Z M6.38610264,8.60491601 C6.3188967,8.53070134 6.2357247,8.47148145 6.13695796,8.42744614 C6.03819122,8.38341084 5.92475799,8.36139319 5.79647262,8.36139319 C5.66837289,8.36139319 5.55493966,8.38341084 5.45617292,8.42744614 C5.35722053,8.47148145 5.27423419,8.53070134 5.20684259,8.60491601 C5.13963665,8.67913068 5.08858242,8.76568283 5.05386554,8.86495207 C5.018963,8.96422132 5.00169739,9.06994401 5.00169739,9.18212015 C5.00169739,9.2944861 5.018963,9.40020879 5.05386554,9.49928822 C5.08858242,9.59855746 5.13963665,9.68529942 5.20684259,9.75951409 C5.27423419,9.83372877 5.35722053,9.89218943 5.45617292,9.9352757 C5.55493966,9.97836196 5.66837289,10 5.79647262,10 C5.92475799,10 6.03819122,9.97836196 6.13695796,9.9352757 C6.2357247,9.89218943 6.3188967,9.83372877 6.38610264,9.75951409 C6.45349423,9.68529942 6.50454847,9.59855746 6.53926535,9.49928822 C6.57398223,9.40020879 6.5914335,9.2944861 6.5914335,9.18212015 C6.5914335,9.06994401 6.57398223,8.96422132 6.53926535,8.86495207 C6.50454847,8.76568283 6.45349423,8.67913068 6.38610264,8.60491601 Z M4.37363745,8.91790832 L3.22166821,8.91790832 L3.22166821,8.01005979 L3,8.01005979 L3,10 L3.22166821,10 L3.22166821,9.09215147 L4.37363745,9.09215147 L4.37363745,10 L4.59512001,10 L4.59512001,8.01005979 L4.37363745,8.01005979 L4.37363745,8.91790832 Z" id="Fill-1"></path>
                <path d="M9.55519323,3.07550305 C9.20166232,2.082518 9.02499545,1.66900498 9.37832919,1.25512276 C10.2616635,0.262322319 11.0882121,1.52002954 10.5580143,2.34760938 L9.6512164,3.25826103 C9.60961293,3.21211002 9.55519323,3.07550305 9.55519323,3.07550305 Z M12.3820603,2.66180543 L10.9685282,4.15100609 C10.3503913,4.64740631 10.0851938,4.3165959 9.82019353,3.65460587 L11.9399988,1.42052797 L12.028135,1.33782536 C11.3234393,-0.413513015 9.46705697,0.160974709 8.95697082,0.688757615 C8.52733119,1.1054089 7.8679852,2.06811888 8.47705211,3.93243493 C8.49795244,3.99113901 8.55316083,4.14399114 8.61507311,4.30496585 L8.17518049,4.71737124 L6.76302857,0.827210633 C6.58655888,0.413513015 6.76854941,0.247923205 7.03354972,0.247923205 L7.03354972,0 L3.7212431,0 L3.7212431,0.247923205 C4.07457684,0.247923205 4.20155615,0.330810412 4.28969241,0.579102824 L4.42475581,0.932988739 L4.95475642,2.39542182 L5.33904629,3.44526491 L5.33628587,3.44821857 L5.38814233,3.5918405 L4.42258691,4.60180912 L3.04553176,0.848809304 C2.86866772,0.435111685 3.04553176,0.269521876 3.30994054,0.269521876 L3.30994054,0.0214140668 L0,0.0214140668 L0,0.269521876 C0.353136565,0.269521876 0.483664988,0.352409083 0.571998423,0.600516891 L2.89015956,7 L5.55711946,4.05870408 L6.61830371,7 L8.78878238,4.71810965 C9.49781593,6.24386192 10.6351089,7.02436773 11.9399988,5.55768876 L13,4.3992985 L12.3820603,2.66180543 Z" id="Fill-3"></path>
            </g>
        </g>
    </g>
</svg>