<?xml version="1.0" encoding="UTF-8"?>
<svg width="30px" height="30px" viewBox="0 0 30 30" version="1.1" xmlns="http://www.w3.org/2000/svg" xmlns:xlink="http://www.w3.org/1999/xlink">
    <!-- Generator: Sketch 49.3 (51167) - http://www.bohemiancoding.com/sketch -->
    <title>泳池</title>
    <desc>Created with Sketch.</desc>
    <defs></defs>
    <g id="泳池" stroke="none" stroke-width="1" fill="none" fill-rule="evenodd">
        <g transform="translate(7.000000, 6.000000)" fill="#7CAD4B" fill-rule="nonzero">
            <path d="M16.46875,16.0761429 C15.8323125,16.0761429 15.5390625,15.8795357 15.1687813,15.6304286 C14.7533438,15.3513214 14.2375,15.0047143 13.279125,15.0047143 C12.32075,15.0047143 11.8049063,15.3513214 11.3894688,15.6304286 C11.0191875,15.8795357 10.7259375,16.0761429 10.0895,16.0761429 C9.45359375,16.0761429 9.160875,15.8795357 8.79059375,15.6304286 C8.37621875,15.3513214 7.85984375,15.0047143 6.902,15.0047143 C5.9446875,15.0047143 5.429375,15.3518571 5.015,15.6304286 C4.64525,15.8795357 4.35253125,16.0761429 3.7176875,16.0761429 C3.08178125,16.0761429 2.78959375,15.8795357 2.4193125,15.6304286 C2.00440625,15.3513214 1.4885625,15.0047143 0.53125,15.0047143 C0.238,15.0047143 0,15.2447143 0,15.5404286 C0,15.8361429 0.238,16.0761429 0.53125,16.0761429 C1.16715625,16.0761429 1.45934375,16.27275 1.829625,16.5218571 C2.24453125,16.8009643 2.760375,17.1475714 3.7176875,17.1475714 C4.675,17.1475714 5.1903125,16.8004286 5.6046875,16.5218571 C5.97496875,16.27275 6.26715625,16.0761429 6.902,16.0761429 C7.53790625,16.0761429 7.830625,16.27275 8.20090625,16.5218571 C8.6158125,16.8009643 9.13165625,17.1475714 10.0895,17.1475714 C11.047875,17.1475714 11.56425,16.8009643 11.9791562,16.5218571 C12.3499688,16.27275 12.6426875,16.0761429 13.279125,16.0761429 C13.9155625,16.0761429 14.2088125,16.27275 14.5790938,16.5218571 C14.9945313,16.8009643 15.510375,17.1475714 16.46875,17.1475714 C16.762,17.1475714 17,16.9075714 17,16.6118571 C17,16.3161429 16.762,16.0761429 16.46875,16.0761429" id="Fill-1"></path>
            <path d="M0.53125,12.6321964 C1.16715625,12.6321964 1.45934375,12.8288036 1.829625,13.0779107 C2.24453125,13.3570179 2.760375,13.703625 3.7176875,13.703625 C4.675,13.703625 5.1903125,13.3564821 5.6046875,13.0779107 C5.97496875,12.8288036 6.26715625,12.6321964 6.902,12.6321964 C7.53790625,12.6321964 7.830625,12.8288036 8.2014375,13.0779107 C8.6158125,13.3570179 9.13165625,13.703625 10.0895,13.703625 C11.047875,13.703625 11.56425,13.3570179 11.9791562,13.0779107 C12.3499688,12.8288036 12.6426875,12.6321964 13.279125,12.6321964 C13.9155625,12.6321964 14.2088125,12.8288036 14.5790938,13.0779107 C14.9945313,13.3570179 15.510375,13.703625 16.46875,13.703625 C16.762,13.703625 17,13.463625 17,13.1679107 C17,12.8721964 16.762,12.6321964 16.46875,12.6321964 C15.8323125,12.6321964 15.5390625,12.4355893 15.1687813,12.1864821 C14.7533438,11.907375 14.2375,11.5607679 13.279125,11.5607679 C12.32075,11.5607679 11.8049063,11.907375 11.3894688,12.1864821 C11.0191875,12.4355893 10.7259375,12.6321964 10.0895,12.6321964 C9.45359375,12.6321964 9.160875,12.4355893 8.79059375,12.1864821 C8.37621875,11.907375 7.85984375,11.5607679 6.902,11.5607679 C5.9446875,11.5607679 5.429375,11.9079107 5.015,12.1864821 C4.64525,12.4355893 4.35253125,12.6321964 3.7176875,12.6321964 C3.08178125,12.6321964 2.78959375,12.4355893 2.4193125,12.1864821 C2.00440625,11.907375 1.4885625,11.5607679 0.53125,11.5607679 C0.238,11.5607679 0,11.8007679 0,12.0964821 C0,12.3921964 0.238,12.6321964 0.53125,12.6321964" id="Fill-3"></path>
            <path d="M4.25,8.574 L11.15625,8.574 L11.15625,6.96685714 L4.25,6.96685714 L4.25,8.574 Z M3.71875,11.274 C4.012,11.274 4.25,11.034 4.25,10.7382857 L4.25,9.64542857 L11.15625,9.64542857 L11.15625,10.7382857 C11.15625,11.034 11.39425,11.274 11.6875,11.274 C11.98075,11.274 12.21875,11.034 12.21875,10.7382857 L12.21875,2.30078571 C12.21875,1.10614286 13.3253438,1.07132143 13.4517813,1.07132143 C14.452125,1.07132143 14.671,2.17542857 14.6927812,2.30239286 C14.7405938,2.59328571 15.0125938,2.7915 15.3010625,2.74328571 C15.591125,2.69614286 15.7876875,2.42132143 15.7409375,2.12935714 C15.623,1.39275 14.9929375,-0.000107142857 13.4517813,-0.000107142857 C12.529,-0.000107142857 11.15625,0.61275 11.15625,2.30078571 L11.15625,5.89542857 L4.25,5.89542857 L4.25,2.30078571 C4.25,1.10614286 5.35659375,1.07132143 5.48303125,1.07132143 C6.483375,1.07132143 6.70225,2.17542857 6.72403125,2.30239286 C6.77184375,2.59328571 7.04278125,2.7915 7.3323125,2.74328571 C7.622375,2.69614286 7.8189375,2.42132143 7.7721875,2.12935714 C7.65425,1.39275 7.0241875,-0.000107142857 5.48303125,-0.000107142857 C4.56025,-0.000107142857 3.1875,0.61275 3.1875,2.30078571 L3.1875,10.7382857 C3.1875,11.034 3.4255,11.274 3.71875,11.274 Z" id="Fill-5"></path>
        </g>
    </g>
</svg>