<?xml version="1.0" encoding="UTF-8"?>
<svg width="30px" height="30px" viewBox="0 0 30 30" version="1.1" xmlns="http://www.w3.org/2000/svg" xmlns:xlink="http://www.w3.org/1999/xlink">
    <!-- Generator: Sketch 49.3 (51167) - http://www.bohemiancoding.com/sketch -->
    <title>人民币</title>
    <desc>Created with Sketch.</desc>
    <defs></defs>
    <g id="Page-1" stroke="none" stroke-width="1" fill="none" fill-rule="evenodd">
        <g id="A-1首页-已登录" transform="translate(-1331.000000, -25.000000)">
            <g id="Group-4" transform="translate(1331.000000, 25.000000)">
                <g id="人民币">
                    <g id="Group-6-Copy" stroke="#979797">
                        <circle id="Oval" cx="15" cy="15" r="14.5"></circle>
                    </g>
                    <g id="人民币1" transform="translate(9.000000, 6.000000)" fill="#999999" fill-rule="nonzero">
                        <path d="M10.2779205,4.3560737 C11.115062,3.20325182 11.947866,2.04617598 12.7785012,0.889100143 C12.9650146,0.627481892 13.0864652,0.327578045 12.78067,0.0999914372 C12.4770435,-0.125468193 12.210286,0.0680867726 12.002085,0.308435246 C11.8502718,0.48497439 11.7114711,0.670021445 11.5748392,0.857195478 C10.1152634,2.86931633 8.65785647,4.88356415 7.19394321,6.89355803 C6.50427741,7.84006308 6.47608353,7.83580912 5.75605508,6.8488915 C4.28997306,4.83677065 2.83039733,2.82252282 1.36431531,0.814655925 C1.20816456,0.601958161 1.04333878,0.391387374 0.865500424,0.195705431 C0.691999594,0.00427744328 0.464279754,-0.0659128189 0.232222393,0.0723407278 C-0.058391498,0.244625917 -0.0432101753,0.514752077 0.0999280098,0.761481484 C0.247403716,1.01884578 0.436085869,1.2549403 0.609586699,1.49528877 C2.17109417,3.63928223 3.72392661,5.78965663 5.30278416,7.91876125 C5.69532979,8.44837868 5.64111078,8.67171134 4.95361374,8.66958436 C4.28129802,8.66958436 3.60898231,8.65894947 2.93883535,8.67809227 C2.58966493,8.68872716 0.0240213965,8.51856895 0.000165032294,9.03542451 C-0.0236913319,9.57354986 2.54628972,9.56716892 2.89546014,9.57780381 C3.5656071,9.59907359 4.24009158,9.57354986 4.91023853,9.59481963 C5.4047159,9.60970848 6.00763129,9.3885028 6.02064385,10.2903413 C6.03365641,11.2517352 5.38953458,11.0241486 4.86035704,11.0390375 C4.25744166,11.0560533 3.65018875,11.0262756 3.04727337,11.0539263 C2.67641534,11.0709421 2.0930188,10.9156727 2.08651252,11.4771948 C2.07783748,12.1195421 2.69810295,11.934495 3.0949861,11.9515109 C3.76513305,11.9834155 4.44178629,12.0025583 5.10976449,11.9536378 C5.83413046,11.9004634 6.03582517,12.1897324 6.02281261,12.8682382 C5.98811244,14.6782962 6.01196881,16.4926081 6.02281261,18.3047931 C6.02498137,18.6344746 6.03582517,19.0300925 6.5216275,18.9981878 C6.92501693,18.9726641 6.93152321,18.6174588 6.93369197,18.3196819 C6.94236701,17.364669 6.93802949,16.409656 6.93802949,15.4525161 C6.93802949,15.4525161 6.94453577,15.4525161 6.94670453,15.4525161 C6.94670453,14.5953441 6.9922485,13.7360451 6.93369197,12.8831271 C6.87947296,12.1174151 7.2004495,11.9047174 7.92698422,11.9515109 C8.69689416,12.0025583 9.47114161,11.9621457 10.2432203,11.9472569 C10.553353,11.940876 10.8873421,11.8898285 10.9003547,11.4963376 C10.915536,11.0709421 10.5555218,11.0645612 10.2562329,11.0581803 C9.51668558,11.0432914 8.77713829,11.0624342 8.03975976,11.0411644 C7.5452824,11.0262756 6.94236701,11.2453543 6.92718569,10.3456427 C6.91200436,9.38424885 7.55829496,9.6075815 8.08530373,9.59269266 C8.82485102,9.57142288 9.56439831,9.58631172 10.3017768,9.5692959 C10.6270909,9.56291497 13.0300774,9.55653404 12.9997148,9.16304317 C12.9736896,8.81421884 10.5620281,8.69298111 10.290933,8.68872716 C9.51885434,8.67596529 8.74677565,8.67383831 7.97252819,8.67383831 C7.34575644,8.67383831 7.27201859,8.4653945 7.64070785,7.97406267 C8.53640589,6.77870123 9.40391004,5.564197 10.2779205,4.3560737 Z" id="Shape"></path>
                    </g>
                </g>
            </g>
        </g>
    </g>
</svg>