<?xml version="1.0" encoding="UTF-8"?>
<svg width="30px" height="30px" viewBox="0 0 30 30" version="1.1" xmlns="http://www.w3.org/2000/svg" xmlns:xlink="http://www.w3.org/1999/xlink">
    <!-- Generator: Sketch 49.3 (51167) - http://www.bohemiancoding.com/sketch -->
    <title>Group 6</title>
    <desc>Created with Sketch.</desc>
    <defs></defs>
    <g id="Page-1" stroke="none" stroke-width="1" fill="none" fill-rule="evenodd">
        <g id="A-1首页-已登录" transform="translate(-1169.000000, -25.000000)">
            <g id="Group" transform="translate(1169.000000, 25.000000)">
                <g id="Group-54">
                    <g id="Group-6">
                        <circle id="Oval" stroke="#979797" cx="15" cy="15" r="14.5"></circle>
                        <path d="M23.3167461,14.1951793 C23.3167461,9.66911574 19.5940968,6 15.0014967,6 C10.4093964,6 6.68674699,9.66911574 6.68674699,14.1951793" id="Stroke-1" stroke="#999999"></path>
                        <path d="M23.313253,21.6672546 C22.3854161,21.6672546 21.626506,20.9142431 21.626506,19.9941181 L21.626506,15.8688161 C21.626506,14.9481908 22.3854161,14.1951793 23.313253,14.1951793 C24.2405857,14.1951793 25,14.9481908 25,15.8688161 L25,19.9941181 C25,20.9142431 24.2405857,21.6672546 23.313253,21.6672546 Z" id="Stroke-3" stroke="#999999"></path>
                        <path d="M8.33752097,19.9524791 L8.33752097,15.8564452 C8.33752097,14.9428483 7.58753804,14.1951793 6.67061538,14.1951793 C5.75369273,14.1951793 5.00420812,14.9428483 5.00420812,15.8564452 L5.00420812,19.9524791 C5.00420812,19.9524791 4.56318826,23.3544974 12.7108434,23.3544974" id="Stroke-5" stroke="#999999" stroke-linecap="round"></path>
                        <path d="M16.5662651,23.595532 C16.5662651,24.6604803 15.7026632,25.5238095 14.6385542,25.5238095 C13.5733927,25.5238095 12.7108434,24.6604803 12.7108434,23.595532 C12.7108434,22.5305838 13.5733927,21.6672546 14.6385542,21.6672546 C15.7026632,21.6672546 16.5662651,22.5305838 16.5662651,23.595532 Z" id="Stroke-7" stroke="#999999"></path>
                    </g>
                </g>
            </g>
        </g>
    </g>
</svg>