<?xml version="1.0" encoding="UTF-8"?>
<svg width="50px" height="50px" viewBox="0 0 50 50" version="1.1" xmlns="http://www.w3.org/2000/svg" xmlns:xlink="http://www.w3.org/1999/xlink">
    <!-- Generator: Sketch 49.3 (51167) - http://www.bohemiancoding.com/sketch -->
    <title>服务</title>
    <desc>Created with Sketch.</desc>
    <defs></defs>
    <g id="服务" stroke="none" stroke-width="1" fill="none" fill-rule="evenodd">
        <g id="Group-65" transform="translate(4.000000, 2.000000)">
            <path d="M15.1939065,27.4722985 C14.309638,25.407084 11.9362686,24.4396836 9.86891584,25.3013747 L8.42582371,20.9119629 C7.64956966,18.5953855 5.49121418,17.0319748 3.05719235,17.0234326 C2.40137318,17.0234326 1.86956522,17.557318 1.86956522,18.2161327 L1.86956522,32.9590876 C1.87333485,35.2358177 2.4887513,37.4694488 3.65110257,39.4240518 L6.89158383,44.8632281 C7.10698442,45.2185531 7.49095518,45.4354076 7.90517965,45.4357959 L17.583176,45.4357959 C18.2042469,45.3847856 18.6854548,44.8687611 18.6956522,44.2430473 L18.6956522,38.7800404 C18.6879196,36.8544127 18.3016774,34.9494125 17.55935,33.1739037 L15.1939065,27.4722985 Z" id="Fill-1" fill="#266FE2" opacity="0.216294643"></path>
            <path d="M13.3243413,25.5947475 C12.4400728,23.529533 10.0667033,22.5621326 7.99935062,23.4238237 L6.55625849,19.0344118 C5.78000445,16.7178344 3.62164897,15.1544238 1.18762713,15.1458816 C0.531807964,15.1458816 0,15.679767 0,16.3385816 L0,31.0815366 C0.00376963115,33.3582667 0.619186081,35.5918977 1.78153735,37.5465008 L5.02201861,42.985677 C5.2374192,43.3410021 5.62138997,43.5578566 6.03561444,43.5582449 L15.7136108,43.5582449 C16.3346817,43.5072346 16.8158896,42.99121 16.826087,42.3654963 L16.826087,36.9024894 C16.8183544,34.9768617 16.4321122,33.0718614 15.6897848,31.2963526 L13.3243413,25.5947475 Z" id="Fill-1" stroke="#266FE2" stroke-width="2"></path>
            <path d="M39.6927957,27.4060216 C38.8576533,25.4555413 36.6161377,24.5418854 34.6636379,25.3557047 L33.3007176,21.2101491 C32.5675887,19.0222704 30.5291419,17.5457159 28.2303435,17.5376483 C27.6109587,17.5376483 27.1086957,18.0418734 27.1086957,18.6640872 L27.1086957,32.5879891 C27.1122559,34.7382342 27.6934825,36.8477747 28.7912587,38.6937887 L31.8517132,43.8307884 C32.0551471,44.1663732 32.4177862,44.3711803 32.8089982,44.371547 L41.9493281,44.371547 C42.535895,44.3233706 42.9903692,43.8360141 43,43.2450622 L43,38.0855557 C42.992697,36.2669073 42.6279127,34.4677404 41.9268257,32.790871 L39.6927957,27.4060216 Z" id="Fill-1" stroke="#266FE2" stroke-width="2" fill="#266FE2" opacity="0.237723214" transform="translate(35.054348, 30.954598) scale(-1, 1) translate(-35.054348, -30.954598) "></path>
            <path d="M37.6286891,25.469274 C36.7444206,23.4040596 34.3710512,22.4366592 32.3036984,23.2983503 L30.8606063,18.9089384 C30.0843523,16.592361 27.9259968,15.0289503 25.491975,15.0204082 C24.8361558,15.0204082 24.3043478,15.5542936 24.3043478,16.2131082 L24.3043478,30.9560631 C24.3081175,33.2327933 24.9235339,35.4664243 26.0858852,37.4210274 L29.3263664,42.8602036 C29.541767,43.2155286 29.9257378,43.4323832 30.3399623,43.4327715 L40.0179586,43.4327715 C40.6390295,43.3817611 41.1202374,42.8657366 41.1304348,42.2400229 L41.1304348,36.777016 C41.1227022,34.8513883 40.73646,32.946388 39.9941326,31.1708792 L37.6286891,25.469274 Z" id="Fill-1" stroke="#266FE2" stroke-width="2" transform="translate(32.717391, 29.226590) scale(-1, 1) translate(-32.717391, -29.226590) "></path>
            <path d="M28.5731518,11.1769526 C28.5731518,6.99824939 22.9617014,1.06225224 22.3245009,0.403208716 C21.7444784,-0.134402905 20.8504125,-0.134402905 20.2701579,0.403208716 C19.7282153,1.06225224 14.0217391,6.99824939 14.0217391,11.1769526 L14.0217391,11.3226942 C14.0437976,13.2382635 14.8226949,15.0664462 16.1872454,16.4052285 C17.5517959,17.7437777 19.3901398,18.4829208 21.2973874,18.4599519 L21.439955,18.4599519 C23.3478412,18.4449114 25.1713827,17.6688082 26.5092308,16.3029762 C27.8470789,14.9368527 28.5894635,13.0929883 28.5731518,11.1769526" id="Fill-1" fill="#50E3C2"></path>
        </g>
    </g>
</svg>