<?xml version="1.0" encoding="UTF-8"?>
<svg width="20px" height="20px" viewBox="0 0 20 20" version="1.1" xmlns="http://www.w3.org/2000/svg" xmlns:xlink="http://www.w3.org/1999/xlink">
    <!-- Generator: Sketch 49.3 (51167) - http://www.bohemiancoding.com/sketch -->
    <title>出租车</title>
    <desc>Created with Sketch.</desc>
    <defs></defs>
    <g id="出租车" stroke="none" stroke-width="1" fill="none" fill-rule="evenodd" stroke-linecap="round" stroke-linejoin="round">
        <g id="Group-68" transform="translate(2.000000, 4.000000)" stroke="#999999">
            <path d="M13.2302228,8.90990142 C12.6275615,8.88800591 12.1454325,8.38334111 12.1603657,7.7884241 C12.1736989,7.25278516 12.7672936,6.74972248 13.3491551,6.78229872 C13.9352832,6.81487497 14.329413,7.25705746 14.3112798,7.86318925 C14.2910133,8.53500757 13.879817,8.932865 13.2302228,8.90990142 Z M11.3859726,4.32412724 C10.7507783,4.34175045 10.1145173,4.33267183 9.47878965,4.33427394 C8.9438611,4.33534201 8.40946587,4.33427394 7.87453731,4.33427394 L7.87453731,4.32038898 C6.74761404,4.32038898 5.62015745,4.32946761 4.49376751,4.31665072 C3.92737257,4.31024228 3.84843994,4.18314152 4.07617124,3.74042499 C4.35350209,3.20051377 4.62603299,2.65846639 4.91723039,2.12442957 C5.07669563,1.83231143 5.35189318,1.65874946 5.73588975,1.65768139 C7.13747723,1.65394313 8.53906471,1.6592835 9.94065219,1.6491368 C10.5918464,1.64486451 10.8147777,2.05927708 11.0350424,2.47208754 C11.2782402,2.92762095 11.4990383,3.39276702 11.7246363,3.85524291 C11.8926348,4.2002307 11.823302,4.31131035 11.3859726,4.32412724 Z M2.66285053,8.9066972 C2.07565577,8.90509509 1.65539286,8.48053582 1.64472628,7.87814228 C1.63352638,7.27788489 2.14552181,6.73850771 2.70925011,6.75613092 C3.3044448,6.77428817 3.76257404,7.24103635 3.76364069,7.82901089 C3.76470735,8.50777169 3.35511101,8.90883335 2.66285053,8.9066972 Z M15.3320707,5.03065795 C15.8445995,5.02745373 15.9864649,4.8848659 15.9987314,4.36418 C16.0136646,3.69342975 15.902199,3.52520815 15.373137,3.51292531 C14.9096745,3.50171053 14.4440786,3.55137596 13.9822161,3.52520815 C13.8216842,3.51612953 13.5950196,3.39864143 13.5262202,3.26513222 C13.1960898,2.62054978 12.9096923,1.95300375 12.6062284,1.29400232 C12.3038311,0.6382051 11.9310344,0.0288690874 11.1107751,0.0192564246 C9.06546001,-0.00424119552 7.02014494,-0.00584330598 4.97536321,0.0123139459 C4.37110194,0.0176543141 3.87510637,0.277196209 3.59990882,0.870511117 C3.24951195,1.62563918 2.86978201,2.36795036 2.52685174,3.12574861 C2.39671957,3.41359446 2.26125411,3.57433954 1.90552396,3.53802504 C1.4452614,3.49156383 0.976998915,3.50651687 0.513003058,3.51612953 C0.0746069738,3.52520815 -0.0133922403,3.82800703 0.00154095964,4.19168611 C0.0164741596,4.55109289 -0.0880582402,4.98846904 0.483669987,5.01784107 C0.740734358,5.03119199 0.998332057,5.01997722 1.3519289,5.01997722 C-0.0965914973,6.3192888 -0.157924283,7.84877026 0.349804516,9.46743586 C0.542869458,10.0831803 0.950332486,10.6198873 1.60259333,10.8153448 C2.13112194,10.9739537 2.30818703,11.2521869 2.27085403,11.7872918 C2.23458768,12.3037054 2.54605157,12.689814 2.9983142,12.7693855 C3.24044537,12.8110404 3.49270978,12.7971554 3.74017424,12.7982235 C4.77803163,12.8008937 5.06976236,12.5237286 5.08096226,11.4935716 C5.08416223,11.2212128 5.16789482,11.0914418 5.45215895,11.0919759 C7.15614373,11.0978503 8.86012851,11.0999864 10.5641133,11.0951801 C10.8238443,11.0946461 10.9363766,11.1998513 10.9225101,11.4556549 C10.9150435,11.5950386 10.9129102,11.7349562 10.9166435,11.8743398 C10.9294434,12.3944917 11.2995734,12.7736578 11.8227687,12.7939512 C12.1011662,12.804632 12.3800971,12.7976895 12.6590279,12.7987575 C13.3299553,12.8014277 13.7843512,12.3779365 13.7475515,11.7002438 C13.7203518,11.196113 13.848884,10.8885078 14.3859458,10.8249575 C14.483545,10.8137427 14.5752775,10.7272287 14.6627434,10.6658145 C15.3624704,10.1696943 15.7246005,9.49787596 15.8077998,8.6370086 C15.9293987,7.3649329 15.9224654,6.14839702 14.8312752,5.2314558 C14.7928755,5.19887955 14.7843423,5.13105687 14.7406093,5.03119199 C14.9694073,5.03119199 15.150739,5.03226006 15.3320707,5.03065795 Z" id="Stroke-1"></path>
            <path d="M5.86666667,8 L9.6,8" id="Stroke-3"></path>
        </g>
    </g>
</svg>