<?xml version="1.0" encoding="UTF-8"?>
<svg width="50px" height="50px" viewBox="0 0 50 50" version="1.1" xmlns="http://www.w3.org/2000/svg" xmlns:xlink="http://www.w3.org/1999/xlink">
    <!-- Generator: Sketch 49.3 (51167) - http://www.bohemiancoding.com/sketch -->
    <title>公交地铁</title>
    <desc>Created with Sketch.</desc>
    <defs></defs>
    <g id="公交地铁" stroke="none" stroke-width="1" fill="none" fill-rule="evenodd">
        <g id="Group-74" transform="translate(5.000000, 3.000000)" stroke="#666666" stroke-width="2">
            <g id="Group" transform="translate(16.000000, 7.000000)" stroke-linecap="round" stroke-linejoin="round">
                <path d="M22.2222222,27.1605556 L0,27.1605556 L0,2.98333333 C0,2.98333333 3.08666667,0 11.1111111,0 C18.4155556,0 22.2222222,2.98333333 22.2222222,2.98333333 L22.2222222,27.1605556 Z" id="Stroke-1"></path>
                <polygon id="Stroke-3" fill-opacity="0.3" fill="#266FE2" points="3.75 13.6133333 18.75 13.6133333 18.75 6 3.75 6"></polygon>
                <g id="Group-71" transform="translate(4.500000, 17.250000)">
                    <path d="M3.99777778,2.56777778 C3.99777778,3.58722222 3.17166667,4.41333333 2.15222222,4.41333333 C1.13277778,4.41333333 0.305555556,3.58722222 0.305555556,2.56777778 C0.305555556,1.54833333 1.13277778,0.722222222 2.15222222,0.722222222 C3.17166667,0.722222222 3.99777778,1.54833333 3.99777778,2.56777778 Z" id="Stroke-5"></path>
                    <path d="M12.3311111,2.56777778 C12.3311111,3.58722222 11.5044444,4.41333333 10.485,4.41333333 C9.46555556,4.41333333 8.63888889,3.58722222 8.63888889,2.56777778 C8.63888889,1.54833333 9.46555556,0.722222222 10.485,0.722222222 C11.5044444,0.722222222 12.3311111,1.54833333 12.3311111,2.56777778 Z" id="Stroke-6"></path>
                </g>
                <path d="M11.1111111,11.1111111 L12.86,13.4772222" id="Stroke-7"></path>
                <path d="M14.4444444,11.1111111 L16.1933333,13.4772222" id="Stroke-8"></path>
                <path d="M6.11111111,27.2222222 L6.11111111,29.4855556" id="Stroke-9"></path>
                <path d="M16.6666667,27.2222222 L16.6666667,29.4855556" id="Stroke-10"></path>
            </g>
            <path d="M3,1 C1.8954305,1 1,1.8954305 1,3 L1,14 L9,14 L9,3 C9,1.8954305 8.1045695,1 7,1 L3,1 Z" id="Rectangle-48"></path>
            <path d="M5,15 L5,37" id="Path-13" stroke-linecap="round"></path>
            <path d="M1,44 L41,44" id="Path-14" stroke-linecap="round" stroke-dasharray="2,4"></path>
        </g>
    </g>
</svg>