<?xml version="1.0" encoding="UTF-8"?>
<svg width="20px" height="20px" viewBox="0 0 20 20" version="1.1" xmlns="http://www.w3.org/2000/svg" xmlns:xlink="http://www.w3.org/1999/xlink">
    <!-- Generator: Sketch 49.3 (51167) - http://www.bohemiancoding.com/sketch -->
    <title>步行</title>
    <desc>Created with Sketch.</desc>
    <defs></defs>
    <g id="步行" stroke="none" stroke-width="1" fill="none" fill-rule="evenodd">
        <path d="M11.4214707,5.76233877 C12.185714,5.76233877 12.8225413,5.13456849 12.8225413,4.38119431 C12.8225413,3.62777028 12.185714,3 11.4214707,3 C10.6572273,3 10.0204,3.62777028 10.0204,4.38119431 C10.0204,5.13456849 10.6572273,5.76233877 11.4214707,5.76233877 M14.4783935,9.27805172 L12.7588839,8.65023159 C12.5419733,8.26026139 12.3338099,7.86565581 12.1148262,7.47678215 C11.9107078,7.11437502 11.7109882,6.69385118 11.4214707,6.39015889 C10.9756663,5.95064493 10.3387884,5.88789282 9.76561853,6.13905078 L6.77240375,7.14353307 C6.51757169,7.20623534 6.32654878,7.45744313 6.26289133,7.70855125 L6.0081604,10.0314259 C5.94445239,10.4080881 6.26289133,10.7848001 6.64498772,10.847602 L6.70869573,10.847602 C7.09084268,10.847602 7.40923106,10.5963942 7.40923106,10.2197819 L7.60030454,8.39912348 L8.74664427,8.02241147 C8.55557079,8.46192543 8.36454788,8.9013397 8.23713185,9.21529961 C7.98240093,9.78026794 7.98240093,10.533692 8.30083986,11.1614622 L6.32654878,15.6816575 C6.13557643,16.1211216 6.32654878,16.6861398 6.77240375,16.8744958 C6.96342666,16.8116938 7.09084268,16.8744958 7.21815759,16.8744958 C7.60030454,16.8744958 7.91869291,16.6861398 8.04610894,16.3094278 L9.51088761,13.0448728 C10.4024964,14.6143732 11.4214707,16.4350317 11.4214707,16.4978336 C11.6124936,16.8116938 11.9309831,17 12.249422,17 C12.3767875,17 12.567861,16.9372977 12.6951759,16.8744958 C13.1409803,16.6233378 13.3320538,16.0583197 13.0773228,15.6188555 C13.0136148,15.4933513 11.4851787,12.6681608 10.4661539,10.9731062 L11.3577627,9.0269436 L11.6762016,9.59191193 C11.7399096,9.78026794 11.9309831,9.84311973 12.058298,9.905822 L14.0325891,10.6591962 C14.0962971,10.6591962 14.2236626,10.7219981 14.2873706,10.7219981 C14.6058095,10.7219981 14.8605404,10.533692 14.9879565,10.2197819 C15.0515633,9.84311973 14.8605404,9.40360577 14.4783935,9.27805172" id="Fill-1" stroke="#979797"></path>
    </g>
</svg>