<?xml version="1.0" encoding="UTF-8"?>
<svg width="30px" height="30px" viewBox="0 0 30 30" version="1.1" xmlns="http://www.w3.org/2000/svg" xmlns:xlink="http://www.w3.org/1999/xlink">
    <!-- Generator: Sketch 49.3 (51167) - http://www.bohemiancoding.com/sketch -->
    <title>微信</title>
    <desc>Created with Sketch.</desc>
    <defs></defs>
    <g id="微信" stroke="none" stroke-width="1" fill="none" fill-rule="evenodd">
        <path d="M11.2502346,17.1878858 L9.74982794,13.3961176 C9.17252383,11.5936721 10.2495464,12.5831192 10.2495464,12.5831192 C10.2495464,12.5831192 11.1734832,13.3406385 11.8746741,13.8019912 C12.5754479,14.2633438 13.3742466,13.9375604 13.3742466,13.9375604 L23.1825766,9.03370716 C21.3730786,6.5942946 18.3839448,5 14.9993743,5 C9.47660959,5 5,9.24352667 5,14.4794204 C5,17.4911438 6.4820531,20.171244 8.79126953,21.9086163 L8.37497654,24.501535 C8.37497654,24.501535 8.17183557,25.2582201 8.87552923,24.9069914 C9.35480843,24.6679723 10.5765741,23.809506 11.304044,23.2880857 C12.4857655,23.7331701 13.7375644,23.9609265 14.9997914,23.9592579 C20.5225562,23.9592579 25,19.7153141 25,14.4794204 C25,12.9631303 24.6224998,11.5311016 23.954262,10.2596705 C20.8291447,12.2961295 13.5611196,17.0289569 12.6246689,17.5937593 C11.4275137,18.3166564 11.2502346,17.1878858 11.2502346,17.1878858 Z" id="Fill-1" fill="#41B035"></path>
    </g>
</svg>