<?xml version="1.0" encoding="UTF-8"?>
<svg width="30px" height="30px" viewBox="0 0 30 30" version="1.1" xmlns="http://www.w3.org/2000/svg" xmlns:xlink="http://www.w3.org/1999/xlink">
    <!-- Generator: Sketch 49.3 (51167) - http://www.bohemiancoding.com/sketch -->
    <title>支付宝</title>
    <desc>Created with Sketch.</desc>
    <defs></defs>
    <g id="支付宝" stroke="none" stroke-width="1" fill="none" fill-rule="evenodd">
        <g transform="translate(5.000000, 5.000000)" fill="#1296DB" fill-rule="nonzero" id="Shape">
            <path d="M20,13.6914524 L20,3.8454462 C20,1.7231311 18.2769378,2.34365628e-08 16.1531078,2.34365628e-08 L3.84529237,0 C1.72306216,0 0,1.72233112 0,3.84544618 L0,16.1545538 C0,18.2768689 1.72146228,20 3.84529237,20 L16.1539077,20 C18.0457563,20 19.6192305,18.6320547 19.9400048,16.8337267 C18.9200864,16.3921443 14.50044,14.4834207 12.1974242,13.3842646 C10.4447644,15.5073797 8.60971123,16.7809288 5.84353252,16.7809288 C3.0773538,16.7809288 1.23110151,15.0769969 1.45268378,12.9922803 C1.59907207,11.6235351 2.537397,9.38522458 6.61547075,9.76920922 C8.76409885,9.97080116 9.74802013,10.3723851 11.49988,10.950762 C11.9534437,10.1203952 12.3302136,9.2044318 12.6157907,8.23167072 L4.84521238,8.23167074 L4.84521238,7.46130155 L8.68970482,7.46130155 L8.68970482,6.07895685 L4.00047996,6.07895685 L4.00047996,5.23099077 L8.69050475,5.23099077 L8.69050475,3.23427064 C8.69050475,3.23427064 8.73290137,2.92228312 9.07767377,2.92228312 L11.0007199,2.92228312 L11.0007199,5.23019081 L16.0003199,5.23019081 L16.0003199,6.07815689 L11.0007199,6.07815689 L11.0007199,7.46050159 L15.0795936,7.46050159 C14.7044236,8.98684054 14.1356691,10.3891844 13.4229262,11.6139355 C14.6076314,12.0427183 20,13.6914524 20,13.6914524 Z M5.53715702,15.4601816 C2.61419086,15.4601816 2.15182784,13.6146554 2.30701543,12.8434863 C2.46060314,12.076317 3.30693545,11.0739571 4.9324054,11.0739571 C6.79945604,11.0739571 8.47212222,11.5531379 10.4799616,12.5290989 C9.06967442,14.3666254 7.33701303,15.4601816 5.53715702,15.4601816 Z"></path>
        </g>
    </g>
</svg>